<?xml version="1.0" encoding="UTF-8" standalone="no"?>
<!-- Generator: Adobe Illustrator 18.1.1, SVG Export Plug-In . SVG Version: 6.00 Build 0)  -->

<svg
   xmlns:dc="http://purl.org/dc/elements/1.1/"
   xmlns:cc="http://creativecommons.org/ns#"
   xmlns:rdf="http://www.w3.org/1999/02/22-rdf-syntax-ns#"
   xmlns:svg="http://www.w3.org/2000/svg"
   xmlns="http://www.w3.org/2000/svg"
   xmlns:sodipodi="http://sodipodi.sourceforge.net/DTD/sodipodi-0.dtd"
   xmlns:inkscape="http://www.inkscape.org/namespaces/inkscape"
   version="1.1"
   id="Capa_1"
   x="0px"
   y="0px"
   viewBox="0 0 99.598 99.598"
   style="enable-background:new 0 0 99.598 99.598;"
   xml:space="preserve"
   sodipodi:docname="earthmoon.svg"
   inkscape:version="0.92.5 (2060ec1f9f, 2020-04-08)"><metadata
   id="metadata41"><rdf:RDF><cc:Work
       rdf:about=""><dc:format>image/svg+xml</dc:format><dc:type
         rdf:resource="http://purl.org/dc/dcmitype/StillImage" /></cc:Work></rdf:RDF></metadata><defs
   id="defs39" /><sodipodi:namedview
   pagecolor="#ffffff"
   bordercolor="#666666"
   borderopacity="1"
   objecttolerance="10"
   gridtolerance="10"
   guidetolerance="10"
   inkscape:pageopacity="0"
   inkscape:pageshadow="2"
   inkscape:window-width="1366"
   inkscape:window-height="715"
   id="namedview37"
   showgrid="false"
   inkscape:zoom="3.3510151"
   inkscape:cx="80.648087"
   inkscape:cy="87.946766"
   inkscape:window-x="-8"
   inkscape:window-y="-8"
   inkscape:window-maximized="1"
   inkscape:current-layer="Capa_1" />
<g
   id="g4">
	<path
   style="fill:#010002"
   d="M 52.376953 27.371094 C 44.928953 27.371094 38.333906 31.00575 34.253906 36.59375 C 23.958906 39.92875 14.868406 44.316516 9.6914062 49.103516 C 9.1074062 48.964516 8.501 48.882813 7.875 48.882812 C 3.526 48.882812 0 52.407813 0 56.757812 C 0 61.108812 3.526 64.632812 7.875 64.632812 C 8.609 64.632812 9.3162344 64.526891 9.9902344 64.337891 C 14.310234 66.793891 21.394406 68.132813 30.691406 68.132812 C 33.344406 68.132812 36.124563 68.008156 38.976562 67.785156 C 42.714562 70.575156 47.351 72.226563 52.375 72.226562 C 60.643 72.226562 67.858047 67.748797 71.748047 61.091797 C 88.118047 55.601797 101.11508 47.465906 99.455078 39.378906 C 98.225078 33.398906 88.969594 29.966797 74.058594 29.966797 C 70.790594 29.966797 67.334297 30.152281 63.779297 30.488281 C 60.437297 28.509281 56.541953 27.371094 52.376953 27.371094 z M 51.880859 30.904297 C 52.617102 30.93824 53.146563 31.100484 53.242188 31.271484 C 52.643188 32.258484 51.716094 31.920922 51.621094 32.919922 C 51.598094 33.117922 51.508578 33.329734 51.392578 33.552734 L 50.957031 34.220703 C 50.511031 34.822703 50.027578 35.354844 50.142578 35.589844 C 50.334578 35.988844 50.141906 37.670453 48.753906 36.189453 C 48.322906 35.731453 47.908484 35.378453 47.521484 35.064453 L 47.003906 34.636719 C 46.426906 34.155719 46.035797 33.758844 46.091797 33.214844 C 46.117797 33.019844 47.524875 32.715281 47.546875 32.363281 C 48.855 31.148906 50.653789 30.847725 51.880859 30.904297 z M 74.058594 32.966797 C 86.826594 32.966797 95.640625 35.721375 96.515625 39.984375 C 97.476625 44.661375 88.649766 51.758641 73.509766 57.306641 C 74.343766 54.958641 74.802734 52.435781 74.802734 49.800781 C 74.802734 43.223781 71.970937 37.309078 67.460938 33.205078 C 69.724937 33.053078 71.937594 32.966797 74.058594 32.966797 z M 61.699219 32.998047 C 62.274012 33.052912 63.602672 33.824828 64.748047 35.033203 C 63.869047 38.318203 61.787109 37.921875 61.787109 37.921875 C 61.787109 37.921875 60.276609 37.889469 60.474609 36.605469 L 62.050781 35.542969 C 62.050781 35.542969 61.386953 33.844531 61.501953 33.019531 C 61.550578 32.997281 61.617105 32.990209 61.699219 32.998047 z M 43.625 33.115234 L 44.123047 35.181641 C 44.123047 35.181641 43.034359 35.477156 42.443359 35.285156 C 41.849359 35.089156 41.554688 35.089844 41.554688 35.089844 L 40.765625 36.175781 L 40.542969 37.929688 C 40.542969 37.929688 41.945312 38.350125 41.945312 37.953125 C 41.945312 37.556125 41.751953 37.361328 41.751953 37.361328 L 41.605469 36.833984 C 42.086469 36.677984 42.557922 36.516281 43.044922 36.363281 C 43.514922 36.326281 44.066547 36.303094 44.810547 36.371094 C 47.187547 36.567094 46.299109 38.242391 47.287109 38.650391 C 48.278109 39.046391 46.495609 40.416844 46.099609 41.214844 C 45.709609 42.002844 45.109375 40.21875 45.109375 40.21875 C 45.109375 40.21875 45.711703 39.534891 44.720703 39.337891 C 43.727703 39.146891 43.071172 41.108438 43.576172 41.023438 C 44.067172 40.926437 44.618484 41.552063 44.521484 42.039062 C 44.420484 42.534062 44.420922 42.494172 43.919922 43.576172 C 43.431922 44.668172 42.355469 45.474609 42.355469 45.474609 C 42.355469 45.474609 41.853391 45.167719 42.150391 45.761719 C 42.448391 46.356719 42.044922 47.733813 42.044922 48.132812 C 42.044922 48.528813 40.865875 47.445172 40.671875 46.451172 C 40.473875 45.469172 39.318875 46.324828 38.921875 46.423828 C 38.527875 46.527828 37.807422 46.250672 37.607422 45.763672 C 37.414422 45.271672 35.634719 46.752062 35.136719 47.039062 C 34.644719 47.332062 34.843766 48.134375 35.634766 47.734375 C 36.424766 47.328375 37.110969 47.641734 36.917969 48.427734 C 36.722969 49.202734 35.929297 48.720125 36.029297 49.203125 C 36.125297 49.701125 36.917281 50.201437 37.113281 50.898438 C 37.309281 51.587438 39.18825 50.994219 39.78125 50.699219 C 40.37625 50.407219 42.045047 50.104438 42.248047 50.898438 C 42.447047 51.687438 44.323672 51.983734 45.013672 52.177734 C 45.708672 52.365734 47.085812 52.466531 47.882812 53.269531 C 48.666812 54.051531 47.2855 55.535297 47.1875 56.029297 C 47.0885 56.524297 46.496609 57.710953 46.099609 58.501953 C 45.709609 59.278953 45.506625 59.584562 45.015625 59.976562 C 44.522625 60.374563 45.267578 61.21875 45.267578 61.21875 L 46.738281 63.123047 C 47.062821 63.123047 47.185916 65.247094 45.814453 65.746094 C 44.994015 66.238094 48.152291 70.591797 48.558594 70.591797 C 47.699594 70.422797 42.226688 66.895188 41.929688 66.117188 C 41.631687 65.321188 41.237797 64.892531 41.341797 64.019531 C 41.434797 63.130531 40.568437 62.657063 40.273438 62.164062 C 39.981437 61.669063 39.591797 60.976422 39.591797 60.482422 C 39.591797 59.984422 38.503906 59.287109 38.503906 59.287109 C 38.503906 59.287109 36.525469 58.406578 36.230469 58.017578 C 35.932469 57.609578 35.634156 55.932094 35.535156 55.246094 C 35.431156 54.557094 35.828125 52.779297 35.828125 52.779297 C 35.828125 52.779297 36.617187 52.174547 36.117188 51.685547 C 35.626188 51.185547 35.527344 49.894531 35.527344 49.894531 L 34.638672 48.908203 C 34.638672 48.908203 33.949516 47.911688 33.853516 47.429688 C 33.752516 46.939687 33.853219 46.642578 33.949219 46.142578 C 34.048219 45.648578 33.753906 44.767531 33.753906 44.269531 C 34.749906 41.834531 35.925328 39.911719 37.111328 38.386719 L 37.779297 37.5625 C 40.769297 34.0995 43.625 33.115234 43.625 33.115234 z M 68.746094 39.445312 C 68.751113 39.43908 68.76275 39.47025 68.78125 39.546875 C 70.11225 41.830875 72.067797 47.942297 71.341797 49.029297 C 70.915797 48.846297 70.552734 48.677734 70.552734 48.677734 L 67.912109 48.677734 L 69.494141 50.529297 C 69.494141 50.529297 70.259797 51.643078 71.341797 51.580078 C 70.874797 56.969078 67.778406 61.082734 65.691406 63.302734 L 64.8125 64.1875 C 64.1635 64.8085 63.734375 65.134766 63.734375 65.134766 C 63.561375 64.968766 63.493391 64.820344 63.400391 64.652344 L 63.167969 64.150391 C 63.021969 63.582391 63.210938 63.167969 63.210938 63.167969 L 63.503906 61.580078 L 63.677734 58.917969 C 63.677734 58.917969 63.602895 54.969344 60.962891 56.277344 C 58.133891 56.997344 59.393344 58.191672 56.527344 58.388672 C 53.658344 58.592672 54.136719 52.554688 54.136719 52.554688 C 54.136719 43.514688 61.0625 50.337891 61.0625 50.337891 C 65.0135 52.975891 65.539062 48.160156 65.539062 48.160156 L 68.439453 47.115234 L 68.701172 45.796875 L 68.283203 43.953125 L 64.076172 42.214844 C 64.076172 42.214844 63.671141 43.576484 64.744141 45.271484 C 64.744141 45.271484 64.393906 47.178687 63.503906 46.679688 L 61.070312 45.447266 C 61.070312 45.447266 60.252828 45.098625 58.923828 45.890625 C 57.610828 46.672625 55.380859 45.849609 55.380859 45.849609 C 55.380859 45.849609 55.559313 44.519844 56.945312 43.839844 L 58.070312 43.080078 C 58.070312 43.080078 57.778109 41.731734 58.037109 40.677734 C 58.301109 39.623734 58.760453 40.544906 59.814453 39.753906 C 60.864453 38.972906 61.591922 41.298109 63.169922 41.037109 C 64.743922 40.772109 63.953672 40.508422 65.013672 39.982422 C 66.069672 39.454422 66.851562 41.037109 66.851562 41.037109 L 68.960938 41.298828 C 68.967937 41.305828 68.710957 39.488939 68.746094 39.445312 z M 31.951172 40.539062 C 30.668172 43.363062 29.947266 46.498734 29.947266 49.802734 C 29.947266 55.655734 32.190328 60.981609 35.861328 64.974609 C 34.098328 65.067609 32.361406 65.132812 30.691406 65.132812 C 23.239406 65.132812 17.1515 64.190547 13.1875 62.560547 C 14.7595 61.121547 15.75 59.058813 15.75 56.757812 C 15.75 54.240812 14.564516 52.006406 12.728516 50.566406 C 16.783516 47.181406 23.388172 43.609062 31.951172 40.539062 z M 55.390625 40.630859 C 54.355661 41.869988 54.300523 41.895986 55.388672 43.328125 C 53.62953 42.508027 53.972976 43.898048 54.183594 44.949219 L 52.857422 43.480469 C 53.118083 42.093369 53.936419 41.1228 55.390625 40.630859 z M 5.9628906 51.619141 C 6.3668906 51.619141 6.0097656 52.950516 6.0097656 53.353516 C 6.0097656 53.756516 7.8981406 54.925781 7.4941406 54.925781 C 7.0901406 54.925781 5.0234375 54.072922 5.0234375 53.669922 C 5.0234375 53.266922 5.5588909 51.619141 5.9628906 51.619141 z M 6.1464844 57.470703 C 7.2494844 57.470703 8.8261719 58.420531 8.8261719 59.519531 C 8.8251719 60.620531 7.2494844 61.460938 6.1464844 61.460938 C 5.0464844 61.460938 4.1542969 60.566797 4.1542969 59.466797 C 4.1542969 58.366797 5.0464844 57.470703 6.1464844 57.470703 z M 11.796875 57.636719 C 12.329875 57.636719 12.759766 58.071516 12.759766 58.603516 C 12.757766 59.133516 12.327875 59.566406 11.796875 59.566406 C 11.264875 59.566406 10.832031 59.133516 10.832031 58.603516 C 10.832031 58.071516 11.265875 57.636719 11.796875 57.636719 z M 6.6582031 57.902344 C 6.2552031 57.902344 5.9296875 58.230812 5.9296875 58.632812 C 5.9296875 59.035813 6.2552031 59.363281 6.6582031 59.363281 C 7.0622032 59.363281 6.7578125 59.141281 6.7578125 58.738281 C 6.7578125 58.336281 7.0632031 57.901344 6.6582031 57.902344 z "
   id="path2" />
</g>
<g
   id="g6">
</g>
<g
   id="g8">
</g>
<g
   id="g10">
</g>
<g
   id="g12">
</g>
<g
   id="g14">
</g>
<g
   id="g16">
</g>
<g
   id="g18">
</g>
<g
   id="g20">
</g>
<g
   id="g22">
</g>
<g
   id="g24">
</g>
<g
   id="g26">
</g>
<g
   id="g28">
</g>
<g
   id="g30">
</g>
<g
   id="g32">
</g>
<g
   id="g34">
</g>
</svg>