<?xml version="1.0" encoding="UTF-8" standalone="no"?>
<!-- Created with Inkscape (http://www.inkscape.org/) -->

<svg
   xmlns:dc="http://purl.org/dc/elements/1.1/"
   xmlns:cc="http://creativecommons.org/ns#"
   xmlns:rdf="http://www.w3.org/1999/02/22-rdf-syntax-ns#"
   xmlns:svg="http://www.w3.org/2000/svg"
   xmlns="http://www.w3.org/2000/svg"
   xmlns:sodipodi="http://sodipodi.sourceforge.net/DTD/sodipodi-0.dtd"
   xmlns:inkscape="http://www.inkscape.org/namespaces/inkscape"
   version="1.1"
   id="svg2993"
   width="240"
   height="80"
   viewBox="0 0 239.99999 79.999999"
   sodipodi:docname="hacker.svg"
   inkscape:version="0.92.3 (2405546, 2018-03-11)">
  <metadata
     id="metadata2999">
    <rdf:RDF>
      <cc:Work
         rdf:about="">
        <dc:format>image/svg+xml</dc:format>
        <dc:type
           rdf:resource="http://purl.org/dc/dcmitype/StillImage" />
        <dc:title />
      </cc:Work>
    </rdf:RDF>
  </metadata>
  <defs
     id="defs2997">
    <filter
       inkscape:collect="always"
       style="color-interpolation-filters:sRGB"
       id="filter4025"
       x="-0.11960557"
       width="1.2392111"
       y="-0.090752088"
       height="1.1815042">
      <feGaussianBlur
         inkscape:collect="always"
         stdDeviation="10.357835"
         id="feGaussianBlur4027" />
    </filter>
  </defs>
  <sodipodi:namedview
     pagecolor="#ffffff"
     bordercolor="#666666"
     borderopacity="1"
     objecttolerance="10"
     gridtolerance="10"
     guidetolerance="10"
     inkscape:pageopacity="0"
     inkscape:pageshadow="2"
     inkscape:window-width="1366"
     inkscape:window-height="715"
     id="namedview2995"
     showgrid="false"
     inkscape:snap-global="false"
     inkscape:zoom="1.4394231"
     inkscape:cx="25.208785"
     inkscape:cy="104.35456"
     inkscape:window-x="-8"
     inkscape:window-y="310"
     inkscape:window-maximized="1"
     inkscape:current-layer="layer4"
     showborder="true" />
  <g
     inkscape:groupmode="layer"
     id="layer4"
     inkscape:label="Complete"
     transform="translate(0,-453.33331)">
    <path
       inkscape:connector-curvature="0"
       id="path3826"
       style="font-style:normal;font-variant:normal;font-weight:normal;font-stretch:normal;font-size:705.96173096px;line-height:1.25;font-family:'MAD hacker';-inkscape-font-specification:'MAD hacker, Normal';font-variant-ligatures:normal;font-variant-caps:normal;font-variant-numeric:normal;font-feature-settings:normal;text-align:start;letter-spacing:0px;word-spacing:0px;writing-mode:lr-tb;text-anchor:start;fill:none;fill-opacity:1;stroke:#000000;stroke-width:1.42981386;stroke-miterlimit:4;stroke-dasharray:none;stroke-opacity:1"
       d="M 7.8840256,464.08024 H 20.924493 v 13.04046 h 7.824281 v -13.04046 h 13.040468 v 36.51331 H 28.748774 v -13.04047 h -7.824281 v 13.04047 H 7.8840256 Z" />
    <path
       inkscape:connector-curvature="0"
       id="path3830"
       style="font-style:normal;font-variant:normal;font-weight:normal;font-stretch:normal;font-size:705.96173096px;line-height:1.25;font-family:'MAD hacker';-inkscape-font-specification:'MAD hacker, Normal';font-variant-ligatures:normal;font-variant-caps:normal;font-variant-numeric:normal;font-feature-settings:normal;text-align:start;letter-spacing:0px;word-spacing:0px;writing-mode:lr-tb;text-anchor:start;fill:none;fill-opacity:1;stroke:#000000;stroke-width:1.42981386;stroke-miterlimit:4;stroke-dasharray:none;stroke-opacity:1"
       d="m 107.72184,464.08024 h 13.04048 v 13.04046 h -13.04048 q -2.16471,0 -3.70349,1.53878 -1.51269,1.51269 -1.51269,3.67741 0,2.16472 1.51269,3.70349 1.53878,1.5127 3.70349,1.5127 h 13.04048 v 13.04047 h -13.04048 q -7.56346,0 -12.91006,-5.34659 -5.346589,-5.3466 -5.346589,-12.91007 0,-7.56347 5.346589,-12.91006 5.3466,-5.34659 12.91006,-5.34659 z" />
    <path
       inkscape:connector-curvature="0"
       id="path3832"
       style="font-style:normal;font-variant:normal;font-weight:normal;font-stretch:normal;font-size:705.96173096px;line-height:1.25;font-family:'MAD hacker';-inkscape-font-specification:'MAD hacker, Normal';font-variant-ligatures:normal;font-variant-caps:normal;font-variant-numeric:normal;font-feature-settings:normal;text-align:start;letter-spacing:0px;word-spacing:0px;writing-mode:lr-tb;text-anchor:start;fill:none;fill-opacity:1;stroke:#000000;stroke-width:1.42981386;stroke-miterlimit:4;stroke-dasharray:none;stroke-opacity:1"
       d="m 152.05944,482.33689 10.43238,18.25666 h -13.04047 l -7.82428,-13.69249 v 13.69249 H 128.5866 v -36.51331 h 13.04047 v 13.69249 l 7.82428,-13.69249 h 13.04047 z" />
    <path
       inkscape:connector-curvature="0"
       id="path3834"
       style="font-style:normal;font-variant:normal;font-weight:normal;font-stretch:normal;font-size:705.96173096px;line-height:1.25;font-family:'MAD hacker';-inkscape-font-specification:'MAD hacker, Normal';font-variant-ligatures:normal;font-variant-caps:normal;font-variant-numeric:normal;font-feature-settings:normal;text-align:start;letter-spacing:0px;word-spacing:0px;writing-mode:lr-tb;text-anchor:start;fill:none;fill-opacity:1;stroke:#000000;stroke-width:1.42981386;stroke-miterlimit:4;stroke-dasharray:none;stroke-opacity:1"
       d="m 195.14515,464.08024 v 10.43237 h -13.04048 v 2.60809 h 13.04048 v 10.43238 h -13.04048 v 2.60809 h 13.04048 v 10.43238 h -26.08094 v -36.51331 z" />
    <path
       inkscape:connector-curvature="0"
       id="path3836"
       style="font-style:normal;font-variant:normal;font-weight:normal;font-stretch:normal;font-size:705.96173096px;line-height:1.25;font-family:'MAD hacker';-inkscape-font-specification:'MAD hacker, Normal';font-variant-ligatures:normal;font-variant-caps:normal;font-variant-numeric:normal;font-feature-settings:normal;text-align:start;letter-spacing:0px;word-spacing:0px;writing-mode:lr-tb;text-anchor:start;fill:none;fill-opacity:1;stroke:#000000;stroke-width:1.42981386;stroke-miterlimit:4;stroke-dasharray:none;stroke-opacity:1"
       d="m 216.0099,474.51261 v 5.21619 h 2.6081 q 2.60809,0 2.60809,-2.6081 0,-2.60809 -2.60809,-2.60809 z m 0,12.38845 v 13.69249 h -13.04047 v -36.51331 h 20.86475 q 10.43238,0 10.43238,13.04046 0,7.45915 -5.32051,9.57171 l 7.9286,13.90114 h -13.04047 z" />
    <g
       aria-label="News"
       style="font-style:normal;font-variant:normal;font-weight:normal;font-stretch:normal;font-size:4.17006826px;line-height:1.25;font-family:Webdings;-inkscape-font-specification:Webdings;letter-spacing:0px;word-spacing:0px;display:inline;fill:#000000;fill-opacity:1;stroke:none;stroke-width:0.10425171"
       id="text3842">
      <path
         d="m 127.89585,525.02466 -6.51573,-10.58807 v 10.58807 h -8.14466 V 502.2196 h 8.14466 l 6.51573,10.58806 V 502.2196 h 8.14467 v 22.80506 z"
         style="font-style:normal;font-variant:normal;font-weight:normal;font-stretch:normal;font-size:33.36054611px;font-family:'MAD hacker';-inkscape-font-specification:'MAD hacker, Normal';font-variant-ligatures:normal;font-variant-caps:normal;font-variant-numeric:normal;font-feature-settings:normal;text-align:start;writing-mode:lr-tb;text-anchor:start;stroke-width:0.10425171"
         id="path3809" />
      <path
         d="m 142.55625,515.25106 v 1.62893 h 1.62893 v -1.62893 z m 17.91826,0 v 1.62893 h -1.62893 v -1.62893 z m -19.54719,-1.62893 h -1.62893 v -1.62894 h 1.62893 v -9.77359 h 16.28933 v 6.51573 h -8.14467 v 1.62893 h 8.14467 v 1.62893 h -1.62894 v 1.62894 h 1.62894 v 3.25786 h -8.14467 v 1.62894 h 8.14467 v 1.62893 h -1.62894 v 1.62893 h 3.25787 v 1.62894 h -4.8868 v 1.62893 h -16.28933 v -1.62893 h 4.8868 v -1.62894 h -3.25786 v -1.62893 h 1.62893 z"
         style="font-style:normal;font-variant:normal;font-weight:normal;font-stretch:normal;font-size:33.36054611px;font-family:'MAD hacker';-inkscape-font-specification:'MAD hacker, Normal';font-variant-ligatures:normal;font-variant-caps:normal;font-variant-numeric:normal;font-feature-settings:normal;text-align:start;writing-mode:lr-tb;text-anchor:start;stroke-width:0.10425171"
         id="path3811" />
      <path
         d="m 168.61918,515.25106 v 1.62893 h 1.62893 v -1.62893 z m 26.06293,0 v 1.62893 h -1.62894 v -1.62893 z m -28.57149,6.51573 v -1.62893 h 1.64522 l -2.05245,-6.51573 h -1.97101 v -1.62894 h 1.44975 l -3.07868,-9.77359 h 8.14466 l 3.25787,9.77359 2.4434,-9.77359 h 5.6361 l 2.50856,9.77359 3.25787,-9.77359 h 8.14466 l -3.12755,9.77359 h -1.85698 v 1.62894 h 1.33572 l -2.10132,6.51573 h -2.08504 v 1.62893 h 3.0624 v 1.62894 h -5.09856 v 1.62893 h -4.78906 l -2.06875,-4.8868 -2.00359,4.8868 h -10.63693 v -1.62893 h 4.1212 v -1.62894 z"
         style="font-style:normal;font-variant:normal;font-weight:normal;font-stretch:normal;font-size:33.36054611px;font-family:'MAD hacker';-inkscape-font-specification:'MAD hacker, Normal';font-variant-ligatures:normal;font-variant-caps:normal;font-variant-numeric:normal;font-feature-settings:normal;text-align:start;writing-mode:lr-tb;text-anchor:start;stroke-width:0.10425171"
         id="path3813" />
      <path
         d="m 221.65723,515.25106 v 1.62893 h -1.62893 v -1.62893 z m -22.07204,-1.62893 h -2.36195 v -1.62894 h 1.85698 q -0.22805,-1.12396 -0.22805,-2.50855 0,-7.26504 6.51573,-7.26504 h 11.40253 v 6.51573 h -8.14466 q -1.62893,0 -1.62893,0.74931 0,0.87962 1.62893,0.87962 h 3.25787 q 3.07868,0 4.70761,1.62893 h -1.44975 v 1.62894 h 2.54114 q 0.71673,1.61264 0.71673,4.00717 0,1.3846 -0.22805,2.50856 h -2.00359 v 1.62893 h 2.8995 v 1.62894 h -6.49944 v 1.61264 l -15.34455,0.0163 v -1.62893 h 4.8868 v -1.62894 h -3.25787 v -1.62893 h 1.62894 v -1.62893 h 8.14466 q 1.62893,0 1.62893,-0.87963 0,-0.74931 -1.62893,-0.74931 h -3.25787 q -0.87962,0 -1.62893,-0.13031 v -1.49862 h -3.0461 q -0.68415,-0.66786 -1.10768,-1.62893 z"
         style="font-style:normal;font-variant:normal;font-weight:normal;font-stretch:normal;font-size:33.36054611px;font-family:'MAD hacker';-inkscape-font-specification:'MAD hacker, Normal';font-variant-ligatures:normal;font-variant-caps:normal;font-variant-numeric:normal;font-feature-settings:normal;text-align:start;writing-mode:lr-tb;text-anchor:start;stroke-width:0.10425171"
         id="path3815" />
    </g>
    <g
       id="g3865"
       transform="matrix(0.99981881,0,0,1.0194942,-1.0293814,-8.3272575)">
      <g
         id="g3859">
        <path
           style="font-style:normal;font-variant:normal;font-weight:normal;font-stretch:normal;font-size:805.33740234px;line-height:1.25;font-family:'MAD hacker';-inkscape-font-specification:'MAD hacker, Normal';font-variant-ligatures:normal;font-variant-caps:normal;font-variant-numeric:normal;font-feature-settings:normal;text-align:start;letter-spacing:0px;word-spacing:0px;writing-mode:lr-tb;text-anchor:start;display:inline;opacity:1;fill:none;fill-opacity:1;stroke:#000000;stroke-width:2.12485909;stroke-miterlimit:4;stroke-dasharray:none;stroke-opacity:1"
           d="m 59.502643,463.56926 -0.02836,0.0751 -0.01324,0.0351 c -4.937734,13.08682 -9.875575,26.17355 -14.813232,39.26041 l 18.317644,-1.58755 c 0.617025,-1.54539 -6.59508,-0.65064 -7.576607,-5.00086 -0.492888,-2.18451 0.932509,4.30828 1.070656,2.11352 0.05031,-0.7993 -0.0036,-6.88172 1.037861,-12.48258 0.769992,-4.14112 2.72331,-8.32518 2.72331,-8.32518 l 3.033222,-3.37589 5.506955,-4.67772 7.006209,4.67706 2.918111,4.12469 2.092596,6.21244 1.157453,12.26953 c 0,0 3.365077,0.94875 3.942777,2.39563 l 7.918663,3.65691 C 88.755132,489.81625 83.713725,476.69278 78.672238,463.56929 Z"
           id="text3850"
           inkscape:connector-curvature="0"
           sodipodi:nodetypes="cccccsssccccccccccc" />
        <path
           style="opacity:1;fill:#000080;fill-opacity:1;fill-rule:evenodd;stroke:#000000;stroke-width:0.90059072;stroke-linecap:round;stroke-linejoin:round;stroke-miterlimit:4;stroke-dasharray:none;stroke-dashoffset:0;stroke-opacity:1"
           d="m 69.316608,465.53233 -1.584151,0.79564 -2.378764,1.26731 -2.438814,2.41526 -2.61368,5.18674 -2.243861,5.5937 -0.861218,3.66108 -0.411262,3.76945 -0.159007,4.05546 -2.049754,0.56952 -3.869667,1.1283 -3.739206,1.30983 -1.445865,1.73806 -1.226385,2.46899 -1.154493,3.09842 -0.678318,5.13598 -0.58211,4.85956 -0.732236,1.00461 -1.414994,2.72232 -0.706018,2.23738 0.222018,3.44685 2.023112,1.48108 2.828086,0.0236 -0.564137,-2.43973 1.50359,-2.93997 2.406252,-1.51057 1.771914,-0.32877 -0.11841,-6.8633 0.258599,-7.0638 17.77666,-0.24783 -1.435928,-1.67199 -4.85585,-3.03645 -2.443466,-2.42487 -0.569211,-5.78141 0.06005,-3.48206 1.114952,-2.61257 1.577173,-2.27054 1.962428,-2.43355 2.189731,-2.92146 1.151744,-1.85946 1.26952,-0.88343 1.425356,-0.61479 1.504224,0.0725 1.637224,0.94242 1.513316,1.66627 1.230614,2.23487 1.426412,1.9843 1.851418,2.27397 1.246685,1.92142 1.241397,2.15691 0.09853,2.52386 -0.185861,3.03303 -0.639834,4.01797 -2.563989,2.38348 -2.52445,1.94429 -2.783049,1.64134 -1.05892,1.10635 19.660853,0.0265 0.01142,6.82374 -0.287777,7.1013 2.141522,0.54551 2.051869,0.93625 1.305676,1.45547 1.181136,2.11439 -0.623976,2.2902 2.737164,-0.002 1.966448,-1.90679 0.47258,-2.01767 -0.15668,-1.74789 -0.51191,-1.1299 -1.001833,-1.91799 -1.144344,-1.60019 -1.381797,-1.51583 -0.238722,-2.37617 -0.375739,-2.67247 -0.2032,-2.06318 -2.079567,-6.10423 -0.664997,-1.67678 -1.434448,-1.32904 -3.209956,-1.18911 -3.615932,-0.93876 -3.209957,-0.84251 -0.126656,-4.53902 -0.138497,-2.64482 -0.94622,-4.03694 -1.389198,-3.37689 -1.600221,-3.65742 -1.36044,-2.69671 -1.287493,-2.11804 -1.991819,-1.67153 -2.031569,-1.26867 z m 20.367081,37.13252 -39.780119,0.23023 z m -40.09919,1.51491 v 13.39621 l -2.189309,1.14088 1.847401,4.14417 0.341908,-0.1781 v 2.19852 h 0.26917 v -20.6052 h 39.711399 v 20.6052 h 0.224978 v -1.61322 l 0.677471,0.0174 2.068362,-4.47272 -0.509373,-0.48127 -0.649561,-0.22726 -1.586899,-0.0597 v -13.86491 z m 39.980569,20.70168 H 49.853669 v 0.13238 h 39.711399 z m -20.276582,-8.85559 a 1.0636416,1.1500925 0 0 0 -1.063784,1.15002 1.0636416,1.1500925 0 0 0 1.063784,1.15002 1.0636416,1.1500925 0 0 0 1.063571,-1.15002 1.0636416,1.1500925 0 0 0 -1.063571,-1.15002 z m 24.131024,3.51887 -1.767474,3.84261 2.143636,0.0407 1.823719,-2.98867 -0.329432,-0.41977 -0.616364,-0.33632 z m -46.866508,0.0464 -1.399136,0.1134 -0.807934,0.83542 1.887999,2.81766 1.994355,-0.0862 z"
           id="rect3004"
           inkscape:connector-curvature="0" />
      </g>
      <path
         transform="matrix(0.10826018,0,0,0.11705938,-4.4485378,464.28995)"
         inkscape:connector-curvature="0"
         id="path3924"
         d="m 674.57422,66.845703 -13.16602,5.251953 -11.72656,7.546875 -10.63867,15.884766 -20.22656,24.957033 -18.12696,20.78906 -14.56836,19.39649 -10.29882,22.31835 -0.55469,29.7461 5.25781,49.38867 22.57031,20.71484 44.85352,25.93946 13.26367,14.2832 -54.83789,0.70703 a 113.96843,153.26788 0 0 0 0.81445,0.91211 h 149.30078 a 113.96843,153.26788 0 0 0 1.94922,-2.30273 l -65.44922,-0.082 9.78125,-9.45118 25.70704,-14.02148 23.31836,-16.60938 23.68359,-20.36132 5.91015,-34.32422 1.7168,-25.91016 -0.91015,-21.56055 -11.4668,-18.42578 L 759.21484,145.21875 742.11328,125.79297 728.9375,108.8418 717.57031,89.75 703.5918,75.515625 688.46875,67.464844 Z"
         style="fill:#000000;fill-rule:evenodd;filter:url(#filter4025)" />
    </g>
  </g>
</svg>
