<?xml version="1.0" encoding="UTF-8" standalone="no"?>
<!-- Created with Inkscape (http://www.inkscape.org/) -->

<svg
   xmlns:dc="http://purl.org/dc/elements/1.1/"
   xmlns:cc="http://creativecommons.org/ns#"
   xmlns:rdf="http://www.w3.org/1999/02/22-rdf-syntax-ns#"
   xmlns:svg="http://www.w3.org/2000/svg"
   xmlns="http://www.w3.org/2000/svg"
   xmlns:sodipodi="http://sodipodi.sourceforge.net/DTD/sodipodi-0.dtd"
   xmlns:inkscape="http://www.inkscape.org/namespaces/inkscape"
   width="100"
   height="50"
   viewBox="0 0 26.458333 13.229167"
   version="1.1"
   id="svg8"
   inkscape:version="0.92.5 (2060ec1f9f, 2020-04-08)"
   sodipodi:docname="movieapp.svg">
  <sodipodi:namedview
     id="base"
     pagecolor="#ffffff"
     bordercolor="#666666"
     borderopacity="1.0"
     inkscape:pageopacity="0.0"
     inkscape:pageshadow="2"
     inkscape:zoom="3.959798"
     inkscape:cx="26.912323"
     inkscape:cy="25.761189"
     inkscape:document-units="mm"
     inkscape:current-layer="layer1"
     showgrid="false"
     showborder="true"
     inkscape:window-width="1366"
     inkscape:window-height="715"
     inkscape:window-x="-8"
     inkscape:window-y="-8"
     inkscape:window-maximized="1"
     inkscape:object-nodes="false"
     units="px" />
  <defs
     id="defs2" />
  <metadata
     id="metadata5">
    <rdf:RDF>
      <cc:Work
         rdf:about="">
        <dc:format>image/svg+xml</dc:format>
        <dc:type
           rdf:resource="http://purl.org/dc/dcmitype/StillImage" />
        <dc:title />
      </cc:Work>
    </rdf:RDF>
  </metadata>
  <g
     inkscape:label="Layer 1"
     inkscape:groupmode="layer"
     id="layer1"
     transform="translate(0,-283.77082)">
    <g
       id="g4389"
       transform="matrix(0.24354856,0,0,0.14137058,-13.555165,269.83705)"
       style="fill:#000000">
      <path
         inkscape:connector-curvature="0"
         id="path4372"
         d="m 70.088227,102.11314 -9.369454,0.002 0.973069,1.27021 c -0.381405,0.11857 -0.762651,0.23439 -1.144117,0.37 h -0.02377 l -0.186034,0.0677 c -0.01053,0.004 -0.021,0.006 -0.03152,0.0103 l -0.545187,0.19895 h 0.01447 l -0.106455,0.0424 -0.0036,10e-4 c -0.06822,0.0253 -0.08903,0.0349 -0.119888,0.047 l -0.109037,0.0434 v 0.002 c -0.120409,0.0486 -0.239877,0.0973 -0.349332,0.14263 -0.05141,0.0213 -0.120216,0.0479 -0.204124,0.0832 l 0.0072,0.0176 c -0.09614,0.0418 -0.167629,0.0489 -0.290936,0.11058 l -2.559534,1.28003 v 69.65724 l 6.407359,-2.66288 c 2.53134,-1.0522 4.80164,-1.49743 7.047632,-1.54202 0.552183,-0.0109 1.103998,0.003 1.655715,0.0403 1.473801,0.1001 2.959658,0.36899 4.496882,0.78858 6.138566,1.67559 13.05945,5.97129 21.377505,10.13169 14.994119,7.49954 35.186809,13.70653 64.449819,0.41186 l 2.71508,-1.23352 v -71.47884 l -6.86367,4.57801 c -0.31248,0.14034 -0.62339,0.2788 -0.93017,0.4129 -0.41536,0.18155 -0.83018,0.35946 -1.24024,0.53227 -3.69257,1.55601 -7.16837,2.76128 -10.45104,3.66644 -3.64868,1.00609 -7.05803,1.64355 -10.26397,1.98748 -2.24309,0.24064 -4.38633,0.33725 -6.44457,0.31264 -0.28911,-0.004 -0.57443,-0.009 -0.85318,-0.017 -0.0624,-0.002 -0.10849,-0.003 -0.14263,-0.004 -0.006,-1.5e-4 -0.01,-3.9e-4 -0.015,-5.2e-4 -0.22906,-0.007 -0.45441,-0.0147 -0.67128,-0.0243 -0.001,-6e-5 -0.002,5e-5 -0.004,0 l -0.0109,-10e-4 -0.0641,-0.006 h -0.0444 c -0.23986,-0.0113 -0.47692,-0.0244 -0.71262,-0.0388 l -0.004,-5.2e-4 h -0.004 c -0.0703,-0.004 -0.10378,-0.006 -0.10542,-0.006 -8.8e-4,-5e-5 -0.002,6e-5 -0.003,0 -1.67029,-0.10568 -3.2865,-0.29022 -4.855,-0.54208 l -0.032,-0.005 -0.009,-10e-4 c 0.0112,0.002 -0.0209,-0.003 -0.0336,-0.005 l -0.008,-0.002 -0.0455,-0.008 -0.0103,-0.002 c -0.11666,-0.0191 -0.23868,-0.0409 -0.35812,-0.0615 l -0.0915,-0.0915 h -0.42788 c -0.193,-0.035 -0.38713,-0.0705 -0.58395,-0.10852 l -0.003,-5.1e-4 -0.005,-0.001 -0.0186,-0.004 c -0.0319,-0.006 -0.0632,-0.0127 -0.0858,-0.0171 l -0.0346,-0.007 c -0.20744,-0.0406 -0.41338,-0.0813 -0.61598,-0.12351 l -0.03,-0.006 c -0.0181,-0.004 -0.0361,-0.009 -0.0966,-0.0222 l -0.076,-0.016 c -0.42644,-0.0906 -0.84709,-0.18586 -1.26297,-0.28474 l -0.11679,-0.0279 -0.032,-0.0103 -0.0325,-0.006 -0.0222,-0.005 c -0.97774,-0.23683 -1.9364,-0.49653 -2.87735,-0.77825 l -0.0331,-0.01 c -0.0238,-0.007 -0.0416,-0.0125 -0.0553,-0.0165 0.002,7.5e-4 0.004,0.001 0.0191,0.006 0.007,0.002 0.0526,0.0187 0.0667,0.0238 l 0.0863,0.0367 c 0.0137,0.007 0.0687,0.0346 0.0687,0.0346 0,0 -0.17955,0.33128 -0.35398,0.65267 l 0.11317,-0.75396 c -6.6e-4,-1.9e-4 -0.002,-8.4e-4 -0.003,-0.001 -0.007,-0.002 -0.0109,-0.003 -0.0196,-0.006 -5.4e-4,-1.6e-4 -0.007,-0.002 -0.009,-0.003 -0.4438,-0.13398 -0.88798,-0.27494 -1.33428,-0.42116 -0.0559,-0.019 -0.10186,-0.0342 -0.1385,-0.0455 -0.001,-4e-4 -0.008,-0.002 -0.009,-0.002 -0.22874,-0.0759 -0.49373,-0.16959 -0.8015,-0.27595 -0.25292,-0.0874 -0.47836,-0.16519 -0.69143,-0.24082 l -0.11266,-0.0403 c -0.21888,-0.0789 -0.44504,-0.16165 -0.67954,-0.24909 -0.28706,-0.107 -0.5667,-0.21295 -0.83716,-0.31781 h -5.2e-4 c -0.22177,-0.086 -0.44311,-0.17305 -0.66714,-0.26251 -0.27267,-0.10887 -0.54624,-0.22164 -0.81907,-0.33435 h -5.2e-4 c -0.15406,-0.0636 -0.29936,-0.12433 -0.44596,-0.18552 l -0.20464,-0.0868 c -0.28078,-0.11896 -0.55913,-0.23749 -0.83406,-0.3576 h -5.2e-4 c -0.22045,-0.0964 -0.42641,-0.18632 -0.6134,-0.26975 -0.28276,-0.12617 -0.57171,-0.25829 -0.86816,-0.39429 h -5.2e-4 c -0.20643,-0.0948 -0.39543,-0.18166 -0.5643,-0.26046 -0.34829,-0.1625 -0.6992,-0.32871 -1.05524,-0.49971 -0.15123,-0.0726 -0.27075,-0.12806 -0.33176,-0.15761 -0.47773,-0.23136 -0.95335,-0.46626 -1.4242,-0.70177 -4.882996,-2.44231 -9.517326,-5.13943 -14.258048,-7.39231 -0.460621,-0.21891 -0.922306,-0.43403 -1.386481,-0.64389 l -0.03979,-0.0176 -0.223758,-0.10128 h -0.0078 c -0.400825,-0.17917 -0.802775,-0.35689 -1.207161,-0.52814 -0.962163,-0.40744 -1.93253,-0.79005 -2.9161,-1.13998 -0.982932,-0.3497 -1.977927,-0.66749 -2.989482,-0.94361 l -0.171048,-0.0465 h -0.01034 c -0.230936,-0.0616 -0.46106,-0.12208 -0.680061,-0.17622 h -5.16e-4 c -0.119084,-0.0294 -0.214188,-0.0518 -0.279054,-0.0672 l -0.0015,-5.2e-4 c -0.197043,-0.047 -0.401807,-0.0947 -0.615466,-0.14159 l -0.140044,-0.0305 h -0.0062 c -0.05774,-0.0123 -0.119698,-0.0258 -0.171566,-0.0367 l -0.133843,-0.0279 h -0.0083 c -0.140922,-0.0287 -0.28194,-0.0573 -0.40876,-0.0816 l -0.123507,-0.0238 h -0.0036 c -0.07272,-0.0142 -0.137068,-0.0271 -0.239263,-0.0455 l -0.116271,-0.0212 h -0.0124 c -0.214296,-0.0376 -0.431173,-0.0749 -0.655256,-0.10956 l -0.08733,-0.0134 v -5.2e-4 c -0.0047,-7e-4 -0.0088,-8.5e-4 -0.01343,-0.002 -0.01005,-0.002 -0.01892,-0.003 -0.02894,-0.004 -0.28916,-0.0431 -0.568301,-0.0803 -0.83561,-0.11266 -0.0036,-4.4e-4 -0.0077,-0.001 -0.01137,-0.002 l -0.0093,-0.001 -0.01085,-0.002 c -0.132244,-0.0162 -0.241599,-0.0273 -0.261483,-0.0295 l 10e-4,5.2e-4 c -0.201144,-0.0224 -0.406363,-0.0434 -0.612883,-0.062 l -0.01395,-0.002 -0.01654,-0.002 c -0.135541,-0.0125 -0.254183,-0.0215 -0.344684,-0.0284 l -0.0031,-5.2e-4 c -0.0063,-4.8e-4 -0.01182,-5.6e-4 -0.01809,-0.001 l -0.02997,-0.003 h -0.0067 c -0.194654,-0.0146 -0.383919,-0.0272 -0.564306,-0.0372 v 0.002 c -0.06892,-0.005 -0.169955,-0.0117 -0.301273,-0.0176 l -0.02946,-0.002 h -0.03049 -0.0088 c -0.222226,-0.01 -0.433023,-0.0155 -0.634069,-0.0191 -0.02384,-0.002 -0.04008,-0.003 -0.05323,-0.003 -0.06331,-0.003 -0.127077,-0.004 -0.226862,-0.004 z m 0.166399,0.004 -0.0083,1.26297 c -0.06119,-0.10695 -0.622691,-1.08883 -0.622702,-1.08882 -1.9e-5,1e-5 0.256865,-0.11267 0.256831,-0.11266 -6.9e-5,3e-5 0.15594,-0.0397 0.192238,-0.0455 0.0363,-0.006 0.058,-0.008 0.07545,-0.01 0.03489,-0.003 0.05141,-0.004 0.0646,-0.005 0.02544,-10e-4 0.03448,-10e-4 0.04186,-0.002 z m -0.0088,1.37046 -0.0083,1.27537 c 0.0017,2e-5 0.0041,-2e-5 0.0057,0 0.227108,0.004 0.459703,0.009 0.699183,0.0202 l 0.02997,0.002 h 0.0067 c 0.08673,0.004 0.165531,0.01 0.24598,0.015 l 0.02687,-0.19843 -0.02584,0.19688 c 0.177853,0.01 0.36653,0.0226 0.564306,0.0377 l 0.05013,0.004 c 1.59e-4,2e-5 3.57e-4,-1e-5 5.16e-4,0 0.0751,0.006 0.153932,0.0122 0.241329,0.0202 l 0.01654,0.002 0.0186,0.002 c 0.192313,0.0172 0.384636,0.0364 0.573093,0.0574 h 5.16e-4 l 5.16e-4,5.1e-4 c 0.06056,0.007 0.125354,0.0127 0.213426,0.0233 l 0.01137,0.002 0.02171,0.003 c 0.163208,0.0197 0.330298,0.0435 0.496094,0.0661 l -0.001,0.0243 c 0.13022,0.0111 0.604578,0.0475 0.604613,0.0475 l -0.20257,-0.0155 c 0.248189,0.0384 0.488754,0.0781 0.717785,0.11938 l 0.04444,0.008 c 0.105336,0.0195 0.201777,0.0383 0.293005,0.0558 l 0.05219,0.01 c 0.144939,0.028 0.294781,0.0579 0.455269,0.0915 l 0.109553,0.0227 0.02429,0.005 c 0.05247,0.0111 0.104106,0.0218 0.157612,0.0336 l 0.0026,5.2e-4 0.0062,0.002 c 0.192082,0.0422 0.379841,0.0852 0.564306,0.12919 h 5.16e-4 l 0.001,5.2e-4 c 0.07317,0.0174 0.155356,0.0363 0.257347,0.0615 0.259022,0.064 0.524706,0.13286 0.79737,0.20723 l 0.01499,0.004 c 0.935,0.25562 1.862286,0.55076 2.786393,0.87953 0.927873,0.33011 1.85016,0.69303 2.771407,1.08314 0.09077,0.0384 0.180621,0.0799 0.271301,0.11886 l -0.04237,0.2961 c 0.04094,0.008 0.414507,0.084 0.76998,0.15607 0.177733,0.0361 0.352591,0.0712 0.483174,0.0977 0.02781,0.006 0.04378,0.009 0.06718,0.0134 0.403514,0.18344 0.806956,0.37008 1.211297,0.56224 4.603441,2.18764 9.230786,4.87888 14.210501,7.36957 0.479236,0.2397 0.964566,0.47912 1.454176,0.71624 0.0995,0.0482 0.20637,0.0976 0.34003,0.16175 0.36503,0.17531 0.72505,0.34551 1.08211,0.51211 0.17861,0.0833 0.37148,0.17231 0.57929,0.26769 h 5.2e-4 c 0.29923,0.13727 0.5962,0.27302 0.89348,0.40565 0.20096,0.0897 0.41159,0.18188 0.63149,0.27802 h 5.2e-4 c 0.0185,0.008 0.0363,0.0152 0.0548,0.0233 v 0.005 l 0.80667,0.34209 c 0.22696,0.0962 0.45054,0.18824 0.67283,0.28009 h 5.2e-4 c 0.27621,0.11411 0.55952,0.23033 0.84852,0.34572 0.23092,0.0922 0.46019,0.18314 0.69143,0.27285 h 5.2e-4 c 0.28406,0.11013 0.57431,0.22009 0.86972,0.33021 0.14818,0.0553 0.28485,0.10436 0.42529,0.15555 l 0.005,0.005 0.27854,0.10025 c 0.2696,0.0971 0.54859,0.19246 0.83509,0.29145 0.3009,0.10399 0.57732,0.20189 0.84646,0.29094 0.004,0.001 0.008,0.003 0.0124,0.004 4.9e-4,1.5e-4 0.002,8.6e-4 0.003,10e-4 l 0.82733,-2.51354 c 0.004,10e-4 0.004,5.8e-4 0.0424,0.015 0.0102,0.004 0.0227,0.008 0.0506,0.0202 0.014,0.006 0.0317,0.0134 0.0625,0.0284 0.0309,0.015 0.17728,0.10441 0.17725,0.10439 -10e-6,-1e-5 0.28113,0.26459 0.28112,0.26458 0,0 0.18604,0.31781 0.18604,0.31781 0,0 0.0915,0.64802 0.0915,0.64802 0,0 -0.4718,0.87385 -0.4718,0.87385 0,0 -0.2713,0.17363 -0.2713,0.17363 1e-5,0 -0.61549,0.12971 -0.61547,0.12971 8e-5,0 -0.20225,-0.0222 -0.22944,-0.0279 -0.21756,-0.046 -0.0985,-0.0251 -0.0977,-0.0248 0.002,5.1e-4 0.032,0.0101 0.078,0.0258 l 0.008,0.003 0.008,0.003 c 0.44224,0.14489 0.88817,0.2857 1.33841,0.4222 l 0.005,0.003 0.0729,0.0217 0.0718,0.0217 c 8.3e-4,2.5e-4 0.002,2.7e-4 0.003,5.2e-4 l 0.11266,0.0341 h 0.0129 c 0.62474,0.18584 1.26583,0.34872 1.90427,0.51522 v 0.0191 l 0.99787,0.25321 c 0.0189,0.005 0.0292,0.007 0.0414,0.01 -0.005,-0.001 -0.0388,-0.0104 -0.0388,-0.0103 0,0 5.1e-4,-0.001 5.1e-4,-0.001 0.003,8.5e-4 0.007,0.002 0.0103,0.003 l -0.008,-0.0103 c 0.002,-0.008 0.0873,-0.29836 0.17415,-0.59531 l -0.12557,0.61753 c 0.004,9e-4 0.009,0.002 0.0129,0.003 0.003,7.4e-4 0.032,0.006 0.0594,0.0119 l -0.0351,-0.006 c 0.50728,0.12212 1.01908,0.2368 1.53479,0.34572 l 0.0724,0.015 c 0.0237,0.005 0.026,0.007 0.0667,0.015 l 0.13333,0.0279 h 0.007 c 0.1818,0.0373 0.36354,0.0746 0.54518,0.11007 l 0.10697,0.0207 0.0186,0.004 h 0.002 5.1e-4 0.002 c 0.10326,0.0199 0.20446,0.0382 0.30696,0.0574 l -0.0181,-0.0181 0.37052,0.0837 0.002,5.2e-4 c 0.0281,0.006 -0.008,-0.002 0.0124,0.002 0.0143,0.003 0.0291,0.006 0.0434,0.008 0.002,-3.9e-4 0.0403,0.008 0.03,0.005 l 0.004,10e-4 0.0305,0.005 0.0398,0.007 c 0.004,6.7e-4 0.008,0.001 0.0114,0.002 h -0.0103 l 0.0351,0.004 c 0.22097,0.039 0.44147,0.0772 0.66404,0.11369 l 0.0434,0.008 0.0222,0.003 c -0.007,-9.8e-4 0.004,0.002 0.0879,0.0145 l 0.0217,0.003 0.0351,0.004 -0.0636,-0.008 c 1.64945,0.26486 3.35077,0.45882 5.1077,0.56999 l 0.005,5.2e-4 c 0.002,1.3e-4 0.004,3.8e-4 0.006,5.1e-4 l 0.0579,0.004 h 0.0186 l 0.0295,0.002 h 5.2e-4 c 0.14688,0.009 0.1509,0.008 0.0109,5.1e-4 0.2517,0.0153 0.50867,0.0296 0.77205,0.0419 l 0.0134,5.2e-4 -0.006,-5.2e-4 -0.006,-5.2e-4 c -0.007,-5.7e-4 -0.014,-0.001 -0.0367,-0.004 -0.0132,-0.002 -0.0298,-0.004 -0.0662,-0.01 -0.0181,-0.003 -0.0409,-0.007 -0.0806,-0.0165 -0.0397,-0.009 -0.22433,-0.0755 -0.22428,-0.0754 3e-5,1e-5 -0.33539,-0.2124 -0.33538,-0.21239 0,0 0.73501,-0.84726 0.81959,-0.94465 l -0.0295,1.26711 c 0.001,5e-5 0.003,-5e-5 0.004,0 0.0156,7.4e-4 0.029,0.002 0.0605,0.002 0.20581,0.009 0.41375,0.0164 0.62218,0.0232 8.4e-4,4e-5 0.005,4.6e-4 0.006,5.2e-4 0.02,0.001 0.0261,0.001 0.0336,0.002 0.015,6.7e-4 0.027,0.001 0.0424,0.002 0.0197,6.7e-4 0.0509,10e-4 0.0791,0.002 0.0118,3.7e-4 0.0233,0.001 0.0351,0.002 h 0.009 l 0.0114,5.2e-4 h 0.0222 v -5.2e-4 c 0.29935,0.009 0.59642,0.0141 0.88987,0.0181 h 0.001 0.001 c 2.16396,0.026 4.41411,-0.0764 6.76083,-0.32814 3.35286,-0.35969 6.9047,-1.02479 10.68462,-2.06706 3.40153,-0.93794 6.98604,-2.18223 10.77557,-3.7791 0.41996,-0.17697 0.84527,-0.35906 1.27227,-0.5457 0.34976,-0.15289 0.70257,-0.30999 1.05627,-0.46923 l 0.0997,-0.045 2.93264,-1.95596 v 64.82912 l -1.16375,0.52865 c -28.57292,12.98116 -47.49021,6.9738 -62.171918,-0.36949 -8.184425,-4.09356 -15.123633,-8.47778 -21.864298,-10.31771 -1.678543,-0.45817 -3.341275,-0.76174 -5.01468,-0.8754 -0.627412,-0.0426 -1.256712,-0.058 -1.887225,-0.0455 -2.565702,0.051 -5.201491,0.57579 -8.01088,1.74357 l -2.745568,1.14101 V 107.44 l 1.09709,-0.54829 c 0.05789,-0.0289 0.05282,-0.0255 0.08165,-0.0387 v 5.1e-4 l 0.23616,-0.0894 -0.0021,-0.006 c 1.85e-4,-7e-5 3.31e-4,8e-5 5.16e-4,0 0.06621,-0.0274 0.124838,-0.0507 0.187587,-0.0765 h 0.29042 l 0.189137,-0.18913 c 0.0774,-0.0297 0.15494,-0.0588 0.232545,-0.0879 h 1.083654 v -0.36328 c 0.359519,-0.11785 0.720828,-0.24779 1.078487,-0.3483 v -5.1e-4 c 0.192751,-0.0542 0.372811,-0.10077 0.545703,-0.14522 l 0.0031,-0.001 c -0.0026,6.8e-4 0.05763,-0.0139 0.14211,-0.0351 0.125085,-0.0314 0.247835,-0.0603 0.376722,-0.0904 l 1.995744,-0.46612 -0.146762,-0.19121 4.011123,-0.001 h 5.19e-4 c 0.0741,1e-5 0.125629,0.001 0.117821,0.001 -0.002,-8e-5 -0.0048,2.4e-4 -0.03411,-0.002 -0.01467,-10e-4 -0.02191,0.001 -0.107487,-0.0129 -0.02139,-0.004 -0.04836,-0.008 -0.09715,-0.0196 -0.02439,-0.006 -0.09771,-0.0279 -0.09767,-0.0279 4e-5,2e-5 -0.189674,-0.0786 -0.18965,-0.0785 1e-5,0 -0.172609,-0.10491 -0.172601,-0.10491 8e-6,1e-5 0.674351,-0.93851 0.737423,-1.02629 z m -10.874788,0.74052 c -0.04857,0.008 -0.105772,0.0458 -0.151929,0.0579 l -0.0062,-0.017 c -4.05e-4,1.3e-4 0.102182,-0.0293 0.104902,-0.03 0.0027,-6.3e-4 -0.006,-7.5e-4 0.05323,-0.0108 z m 53.751242,14.85853 0.12609,0.0186 c -0.003,0.0263 -0.12712,1.30328 -0.12712,1.30328 0,0 -0.1394,0.25656 -0.27388,0.50436 z m 3.29076,0.89555 -0.36019,1.77095 c -0.11176,0.34786 -0.22189,0.68974 -0.23306,0.7245 l -0.0734,-0.094 c 0.0469,-0.16906 0.6463,-2.32811 0.66663,-2.4014 z m 3.25199,0.63769 0.0191,0.003 0.015,0.004 -0.0269,-0.005 c -0.002,-4.2e-4 -0.005,-10e-4 -0.007,-0.002 z m -3.33209,0.17363 -0.0506,0.24856 c -0.0186,0.0568 -0.0677,0.20671 -0.0677,0.20671 4e-5,-9e-5 0.042,-0.10411 0.0517,-0.12816 l -0.076,0.3731 c 0.007,-0.0739 0.0243,-0.24443 0.0243,-0.24443 0,0 0,-5.1e-4 0,-5.1e-4 -2e-5,-1e-5 0.0635,-0.2467 0.11834,-0.45527 z m 9.87381,0.56224 -0.0212,0.90434 c -0.0101,-0.006 -0.0124,-0.007 -0.0222,-0.0134 0.007,0.0323 0.012,0.0541 0.0202,0.0899 l -0.005,0.19947 c -0.0206,-0.0681 -0.0545,-0.18074 -0.10335,-0.34262 -0.10846,-0.0655 -0.28681,-0.17311 -0.28681,-0.17311 0,0 0.0969,-0.11683 0.17209,-0.20723 -0.0525,-0.17399 -0.12144,-0.40152 -0.12144,-0.40152 -6e-5,2e-5 0.17603,-0.0411 0.21445,-0.046 0.0384,-0.005 0.0607,-0.007 0.0786,-0.008 0.0561,-0.004 0.0625,-0.002 0.0744,-0.002 z m 0.89711,0.0408 c 0.0568,0.0105 0.18194,0.0362 0.1819,0.0362 -1e-5,0 -0.0955,0.33358 -0.19069,0.66559 z m 0.62942,0.98392 c -0.20219,0.61236 -0.53383,1.61696 -0.53382,1.61696 3e-5,-1e-5 -0.0697,0.009 -0.12919,0.017 l 0.0176,-1.37666 c 0.15157,-0.0604 0.35618,-0.14213 0.64544,-0.25735 z m -1.49448,0.25838 -0.002,0.0636 c -6.7e-4,-0.001 -0.0155,-0.0248 -0.0155,-0.0248 0,0 0.016,-0.0363 0.0171,-0.0388 z"
         style="color:#000000;font-style:normal;font-variant:normal;font-weight:normal;font-stretch:normal;font-size:medium;line-height:normal;font-family:sans-serif;font-variant-ligatures:normal;font-variant-position:normal;font-variant-caps:normal;font-variant-numeric:normal;font-variant-alternates:normal;font-feature-settings:normal;text-indent:0;text-align:start;text-decoration:none;text-decoration-line:none;text-decoration-style:solid;text-decoration-color:#000000;letter-spacing:normal;word-spacing:normal;text-transform:none;writing-mode:lr-tb;direction:ltr;text-orientation:mixed;dominant-baseline:auto;baseline-shift:baseline;text-anchor:start;white-space:normal;shape-padding:0;clip-rule:nonzero;display:inline;overflow:visible;visibility:visible;opacity:1;isolation:auto;mix-blend-mode:normal;color-interpolation:sRGB;color-interpolation-filters:linearRGB;solid-color:#000000;solid-opacity:1;vector-effect:none;fill:#000000;fill-opacity:1;fill-rule:evenodd;stroke:none;stroke-width:2.64583325;stroke-linecap:butt;stroke-linejoin:miter;stroke-miterlimit:4;stroke-dasharray:none;stroke-dashoffset:0;stroke-opacity:1;color-rendering:auto;image-rendering:auto;shape-rendering:auto;text-rendering:auto;enable-background:accumulate" />
      <g
         transform="translate(0,-3.0653868)"
         id="text3821"
         style="font-style:normal;font-variant:normal;font-weight:normal;font-stretch:normal;font-size:8.05661011px;line-height:1.25;font-family:Webdings;-inkscape-font-specification:Webdings;letter-spacing:0px;word-spacing:0px;opacity:1;fill:#000000;fill-opacity:1;stroke:none;stroke-width:0.20141524"
         aria-label="Movie App">
        <path
           inkscape:connector-curvature="0"
           id="path3827"
           style="font-style:normal;font-variant:normal;font-weight:normal;font-stretch:normal;font-size:48.33966064px;font-family:'SF Movie Poster';-inkscape-font-specification:'SF Movie Poster, Normal';font-variant-ligatures:normal;font-variant-caps:normal;font-variant-numeric:normal;font-feature-settings:normal;text-align:start;letter-spacing:1.32291663px;writing-mode:lr-tb;text-anchor:start;fill:#000000;stroke-width:0.20141524"
           d="m 74.963898,161.01291 c 0,0 -2.069516,-0.0216 -2.069516,-0.0216 0,0 0,-27.88736 0,-27.88736 0,0 -2.702543,18.48143 -2.702543,18.48143 0,0 -2.702544,-18.54065 -2.702544,-18.54065 0,0 0,27.89012 0,27.89012 0,0 -2.069515,-0.0216 -2.069515,-0.0216 0,0 0,-41.6993 0,-41.6993 0,0 2.069515,0.0232 2.069515,0.0232 0,0 2.702544,19.06062 2.702544,19.06062 0,0 2.702543,-19.00004 2.702543,-19.00004 0,0 2.069516,0.0232 2.069516,0.0232 0,0 0,41.69203 0,41.69203" />
        <path
           inkscape:connector-curvature="0"
           id="path3829"
           style="font-style:normal;font-variant:normal;font-weight:normal;font-stretch:normal;font-size:48.33966064px;font-family:'SF Movie Poster';-inkscape-font-specification:'SF Movie Poster, Normal';font-variant-ligatures:normal;font-variant-caps:normal;font-variant-numeric:normal;font-feature-settings:normal;text-align:start;letter-spacing:1.32291663px;writing-mode:lr-tb;text-anchor:start;fill:#000000;stroke-width:0.20141524"
           d="m 85.334326,156.6414 c 0,2.0565 -0.357645,3.7589 -1.072936,5.10731 -0.812831,1.41713 -1.836997,1.88337 -3.0725,1.39857 -1.251759,-0.49118 -2.284053,-1.76463 -3.096884,-3.82048 -0.715291,-1.91084 -1.072936,-3.89514 -1.072936,-5.95279 0,0 0,-25.33309 0,-25.33309 0,-2.05765 0.357645,-3.76028 1.072936,-5.10777 0.796574,-1.47555 1.828868,-1.96269 3.096884,-1.46159 1.251759,0.49469 2.275926,1.79425 3.0725,3.89856 0.715291,1.91175 1.072936,3.89582 1.072936,5.95232 0,0 0,25.31896 0,25.31896 m -2.072718,-0.81445 c 0,0 0,-25.32248 0,-25.32248 0,-1.14859 -0.170694,-2.25773 -0.512083,-3.32744 -0.373902,-1.24287 -0.894114,-1.99596 -1.560635,-2.25921 -0.666521,-0.26324 -1.194861,0.0758 -1.585019,1.01715 -0.341389,0.80036 -0.512084,1.77501 -0.512084,2.92392 0,0 0,25.32958 0,25.32958 0,1.17563 0.170695,2.28472 0.512084,3.32722 0.390158,1.24864 0.918498,2.00379 1.585019,2.26547 0.666521,0.26169 1.186733,-0.0817 1.560635,-1.03008 0.341389,-0.77412 0.512083,-1.74882 0.512083,-2.92413 0,0 0,0 0,0" />
        <path
           inkscape:connector-curvature="0"
           id="path3831"
           style="font-style:normal;font-variant:normal;font-weight:normal;font-stretch:normal;font-size:48.33966064px;font-family:'SF Movie Poster';-inkscape-font-specification:'SF Movie Poster, Normal';font-variant-ligatures:normal;font-variant-caps:normal;font-variant-numeric:normal;font-feature-settings:normal;text-align:start;letter-spacing:1.32291663px;writing-mode:lr-tb;text-anchor:start;fill:#000000;stroke-width:0.20141524"
           d="m 97.500508,129.45204 c 0,0 -4.04914,39.53205 -4.04914,39.53205 0,0 -2.107447,-1.10995 -2.107447,-1.10995 0,0 -3.954423,-43.74322 -3.954423,-43.74322 0,0 2.107447,1.10909 2.107447,1.10909 0,0 2.91254,32.98313 2.91254,32.98313 0,0 2.983576,-29.88019 2.983576,-29.88019 0,0 2.107447,1.10909 2.107447,1.10909" />
        <path
           inkscape:connector-curvature="0"
           id="path3833"
           style="font-style:normal;font-variant:normal;font-weight:normal;font-stretch:normal;font-size:48.33966064px;font-family:'SF Movie Poster';-inkscape-font-specification:'SF Movie Poster, Normal';font-variant-ligatures:normal;font-variant-caps:normal;font-variant-numeric:normal;font-feature-settings:normal;text-align:start;letter-spacing:1.32291663px;writing-mode:lr-tb;text-anchor:start;fill:#000000;stroke-width:0.20141524"
           d="m 101.91832,173.29484 c 0,0 -2.36264,-1.14101 -2.36264,-1.14101 0,0 0,-41.66568 0,-41.66568 0,0 2.36264,1.1374 2.36264,1.1374 0,0 0,41.66929 0,41.66929" />
        <path
           inkscape:connector-curvature="0"
           id="path3835"
           style="font-style:normal;font-variant:normal;font-weight:normal;font-stretch:normal;font-size:48.33966064px;font-family:'SF Movie Poster';-inkscape-font-specification:'SF Movie Poster, Normal';font-variant-ligatures:normal;font-variant-caps:normal;font-variant-numeric:normal;font-feature-settings:normal;text-align:start;letter-spacing:1.32291663px;writing-mode:lr-tb;text-anchor:start;fill:#000000;stroke-width:0.20141524"
           d="m 110.96583,176.91478 c 0,0 -6.99233,-2.68924 -6.99233,-2.68924 0,0 0,-41.67291 0,-41.67291 0,0 6.99233,2.6727 6.99233,2.6727 0,0 0,3.46056 0,3.46056 0,0 -4.94286,-1.8903 -4.94286,-1.8903 0,0 0,15.62917 0,15.62917 0,0 4.12307,1.58044 4.12307,1.58044 0,0 0,3.50109 0,3.50109 0,0 -4.12307,-1.58126 -4.12307,-1.58126 0,0 0,15.62916 0,15.62916 0,0 4.94286,1.90005 4.94286,1.90005 0,0 0,3.46054 0,3.46054" />
        <path
           inkscape:connector-curvature="0"
           id="path3837"
           style="font-style:normal;font-variant:normal;font-weight:normal;font-stretch:normal;font-size:48.33966064px;font-family:'SF Movie Poster';-inkscape-font-specification:'SF Movie Poster, Normal';font-variant-ligatures:normal;font-variant-caps:normal;font-variant-numeric:normal;font-feature-settings:normal;text-align:start;letter-spacing:1.32291663px;writing-mode:lr-tb;text-anchor:start;fill:#000000;stroke-width:0.20141524"
           d="m 134.21144,179.50019 c 0,0 -2.12716,0.017 -2.12716,0.017 0,0 -0.74092,-7.81592 -0.74092,-7.81592 0,0 -4.49332,0.0357 -4.49332,0.0357 0,0 -0.71702,7.82782 -0.71702,7.82782 0,0 -2.12716,0.017 -2.12716,0.017 0,0 3.99141,-41.73926 3.99141,-41.73926 0,0 2.12716,-0.0164 2.12716,-0.0164 0,0 4.08701,41.67402 4.08701,41.67402 m -3.10708,-10.39412 c 0,0 -2.03156,-21.5249 -2.03156,-21.5249 0,0 -2.00765,21.55689 -2.00765,21.55689 0,0 4.03921,-0.032 4.03921,-0.032" />
        <path
           inkscape:connector-curvature="0"
           id="path3839"
           style="font-style:normal;font-variant:normal;font-weight:normal;font-stretch:normal;font-size:48.33966064px;font-family:'SF Movie Poster';-inkscape-font-specification:'SF Movie Poster, Normal';font-variant-ligatures:normal;font-variant-caps:normal;font-variant-numeric:normal;font-feature-settings:normal;text-align:start;letter-spacing:1.32291663px;writing-mode:lr-tb;text-anchor:start;fill:#000000;stroke-width:0.20141524"
           d="m 144.51107,150.22211 c 0,2.09007 -0.35764,4.03211 -1.07294,5.82617 -0.79657,1.97269 -1.82887,3.08166 -3.09688,3.32684 0,0 -2.07271,0.40077 -2.07271,0.40077 0,0 0,19.09912 0,19.09912 0,0 -2.07272,0.4019 -2.07272,0.4019 0,0 0,-41.70288 0,-41.70288 0,0 4.14543,-0.79889 4.14543,-0.79889 1.26801,-0.24437 2.30031,0.46606 3.09688,2.13123 0.7153,1.46361 1.07294,3.26757 1.07294,5.41193 0,0 0,5.90381 0,5.90381 m -2.07272,0.40029 c 0,0 0,-5.90416 0,-5.90416 0,-1.19441 -0.17069,-2.23373 -0.51208,-3.11797 -0.39016,-1.03776 -0.9185,-1.49238 -1.58502,-1.36387 0,0 -2.07271,0.39965 -2.07271,0.39965 0,0 0,15.63767 0,15.63767 0,0 2.07271,-0.40057 2.07271,-0.40057 0.66652,-0.12881 1.19486,-0.78741 1.58502,-1.97579 0.34139,-0.98892 0.51208,-2.08057 0.51208,-3.27496 0,0 0,0 0,0" />
        <path
           inkscape:connector-curvature="0"
           id="path3841"
           style="font-style:normal;font-variant:normal;font-weight:normal;font-stretch:normal;font-size:48.33966064px;font-family:'SF Movie Poster';-inkscape-font-specification:'SF Movie Poster, Normal';font-variant-ligatures:normal;font-variant-caps:normal;font-variant-numeric:normal;font-feature-settings:normal;text-align:start;letter-spacing:1.32291663px;writing-mode:lr-tb;text-anchor:start;fill:#000000;stroke-width:0.20141524"
           d="m 154.81122,146.84977 c 0,2.0894 -0.35767,4.08368 -1.07301,5.9829 -0.79662,2.08986 -1.82897,3.35112 -3.09707,3.78371 0,0 -2.07285,0.70712 -2.07285,0.70712 0,0 0,19.09404 0,19.09404 0,0 -2.07284,0.70859 -2.07284,0.70859 0,0 0,-41.69254 0,-41.69254 0,0 4.14569,-1.41075 4.14569,-1.41075 1.2681,-0.43152 2.30045,0.12627 3.09707,1.67329 0.71534,1.3575 1.07301,3.10806 1.07301,5.25173 0,0 0,5.90191 0,5.90191 m -2.07285,0.70648 c 0,0 0,-5.90237 0,-5.90237 0,-1.19404 -0.17071,-2.20783 -0.51212,-3.04139 -0.39018,-0.97982 -0.91855,-1.35628 -1.58511,-1.12937 0,0 -2.07285,0.70564 -2.07285,0.70564 0,0 0,15.63351 0,15.63351 0,0 2.07285,-0.70686 2.07285,-0.70686 0.66656,-0.2273 1.19493,-0.96381 1.58511,-2.2095 0.34141,-1.03909 0.51212,-2.15563 0.51212,-3.34966 0,0 0,0 0,0" />
      </g>
      <path
         id="path4212"
         transform="scale(0.26458333)"
         d="m 264.9082,403.44727 c -0.80417,-0.008 -1.6107,-0.003 -2.41797,0.0117 -0.21845,0.004 -0.43756,0.012 -0.65625,0.0195 -0.58919,0.0151 -1.17856,0.0341 -1.76953,0.0605 -0.25927,0.0113 -0.5196,0.0263 -0.77929,0.041 -0.5263,0.0302 -1.05422,0.0626 -1.58204,0.10156 -0.3443,0.0265 -0.68813,0.0522 -1.0332,0.082 -0.4309,0.0378 -0.86292,0.0808 -1.29492,0.125 -0.38109,0.0389 -0.76257,0.0749 -1.14453,0.11914 -0.46711,0.0541 -0.93586,0.11771 -1.4043,0.17969 -0.96964,0.12888 -1.9404,0.2729 -2.91601,0.4375 -0.082,0.0151 -0.16408,0.0262 -0.2461,0.0391 -0.52921,0.0907 -1.06073,0.19168 -1.59179,0.29297 -0.29027,0.0552 -0.58023,0.10977 -0.8711,0.16797 -0.50967,0.1028 -1.0198,0.21354 -1.53125,0.32617 -0.26948,0.0593 -0.53877,0.11928 -0.80859,0.18164 -0.56636,0.1304 -1.1345,0.2653 -1.70313,0.40821 -0.16252,0.0408 -0.32542,0.085 -0.48828,0.12695 -0.63961,0.16441 -1.27928,0.33109 -1.92187,0.51172 -2.25525,0.63375 -4.52925,1.36791 -6.82422,2.20508 -0.70526,0.25738 -1.41374,0.52562 -2.12305,0.80273 -0.11301,0.0442 -0.22646,0.0882 -0.33984,0.13281 -0.70666,0.27893 -1.41422,0.56815 -2.125,0.86719 -0.0113,0.004 -0.0217,0.008 -0.0293,0.0117 v 6.5625 c 0.008,-0.004 0.018,-0.008 0.0293,-0.0117 0.71078,-0.29904 1.41834,-0.58826 2.125,-0.86719 0.11338,-0.0446 0.22683,-0.0886 0.33984,-0.13281 0.70931,-0.27711 1.41779,-0.54535 2.12305,-0.80273 2.29497,-0.83717 4.56897,-1.57133 6.82422,-2.20508 0.64258,-0.18063 1.28226,-0.34731 1.92187,-0.51172 0.16286,-0.042 0.32576,-0.0861 0.48828,-0.12695 0.56863,-0.14287 1.13677,-0.27781 1.70313,-0.40821 0.26982,-0.0624 0.53911,-0.1223 0.80859,-0.18164 0.51145,-0.11263 1.02158,-0.22337 1.53125,-0.32617 0.0958,-0.0192 0.19144,-0.0362 0.28711,-0.0547 v 16.16016 c -0.0957,0.0185 -0.19128,0.0355 -0.28711,0.0547 -0.50967,0.1028 -1.0198,0.21354 -1.53125,0.32617 -0.26948,0.0593 -0.53877,0.11928 -0.80859,0.18164 -0.56636,0.13039 -1.1345,0.26534 -1.70313,0.4082 -0.16252,0.0408 -0.32542,0.085 -0.48828,0.12695 -0.63961,0.16441 -1.27929,0.33106 -1.92187,0.51172 -2.25525,0.63372 -4.52925,1.36792 -6.82422,2.20508 -0.70526,0.25739 -1.41374,0.5257 -2.12305,0.80274 -0.11301,0.0442 -0.22646,0.0882 -0.33984,0.13281 -0.70666,0.27893 -1.41422,0.56823 -2.125,0.86719 -0.0113,0.004 -0.0217,0.008 -0.0293,0.0117 v 6.57226 c 0.008,-0.004 0.018,-0.008 0.0293,-0.0117 0.71078,-0.29903 1.41834,-0.58826 2.125,-0.86719 0.11338,-0.0446 0.22683,-0.0886 0.33984,-0.13281 0.70931,-0.27711 1.41779,-0.54535 2.12305,-0.80273 2.29497,-0.83717 4.56897,-1.57133 6.82422,-2.20508 0.64259,-0.18062 1.28226,-0.34731 1.92187,-0.51172 0.16286,-0.042 0.32576,-0.0861 0.48828,-0.12695 0.56863,-0.14291 1.13677,-0.27781 1.70313,-0.40821 0.26982,-0.0624 0.53911,-0.1223 0.80859,-0.18164 0.51145,-0.11263 1.02158,-0.22336 1.53125,-0.32617 0.29087,-0.0582 0.58083,-0.11279 0.8711,-0.16797 0.53106,-0.10129 1.06258,-0.20226 1.59179,-0.29297 0.082,-0.0129 0.16408,-0.0239 0.2461,-0.0391 0.97561,-0.1646 1.94637,-0.30862 2.91601,-0.4375 0.46844,-0.062 0.93719,-0.12564 1.4043,-0.17969 0.38196,-0.0442 0.76344,-0.0802 1.14453,-0.11914 0.432,-0.0442 0.86402,-0.0872 1.29492,-0.125 0.34507,-0.0298 0.6889,-0.0556 1.0332,-0.082 0.52782,-0.0389 1.05574,-0.0713 1.58204,-0.10156 0.25969,-0.0147 0.52002,-0.0297 0.77929,-0.041 0.59097,-0.0265 1.18034,-0.0454 1.76953,-0.0605 0.21869,-0.008 0.4378,-0.0157 0.65625,-0.0195 0.80727,-0.0151 1.6138,-0.0193 2.41797,-0.0117 0.15406,0 0.30711,0.008 0.46094,0.01 0.81925,0.0132 1.63679,0.0345 2.45313,0.0723 0.32519,0.014 0.64994,0.0338 0.97461,0.0527 0.65706,0.0363 1.31338,0.0767 1.96874,0.12696 0.36103,0.028 0.72147,0.0558 1.08204,0.0898 0.68753,0.0612 1.37467,0.13068 2.06054,0.20703 0.27398,0.0306 0.54863,0.0578 0.82227,0.0918 0.97727,0.11743 1.95333,0.24555 2.92773,0.39258 h 0.002 c 0.93312,0.14097 1.86402,0.29936 2.79492,0.46679 0.39787,0.0718 0.79583,0.15022 1.19336,0.22657 0.59633,0.11414 1.19344,0.23074 1.78906,0.35546 0.3439,0.0722 0.68769,0.14512 1.03125,0.22071 0.67759,0.14857 1.35437,0.30541 2.03125,0.46679 0.30739,0.0733 0.6146,0.14474 0.92188,0.22071 0.94706,0.2341 1.89371,0.47623 2.83984,0.73437 3.35036,0.91453 6.69588,1.97843 10.04492,3.16992 3.34908,1.1915 6.70161,2.51067 10.06641,3.93555 1.68238,0.71244 3.36711,1.45221 5.05664,2.21485 h 0.002 c 1.689,0.76239 3.38186,1.54838 5.08008,2.35546 16.98799,8.07304 34.49109,18.24531 53.57226,27.78907 1.84426,0.92243 3.7053,1.83813 5.58008,2.74609 0.43174,0.20908 0.87129,0.41284 1.30469,0.62109 1.38096,0.66324 2.76552,1.32403 4.16406,1.97657 0.74211,0.34628 1.49299,0.68649 2.24024,1.02929 1.14466,0.52517 2.29219,1.04821 3.44922,1.56446 0.80934,0.36117 1.62586,0.71585 2.4414,1.07226 1.10438,0.4825 2.21207,0.96074 3.32813,1.4336 0.8666,0.36729 1.73751,0.73085 2.61132,1.09179 1.08987,0.45022 2.18568,0.89424 3.28711,1.33399 0.89246,0.35637 1.78726,0.70936 2.6875,1.05859 1.11924,0.43389 2.2474,0.85946 3.37891,1.28125 0.91408,0.3408 1.82772,0.68107 2.75,1.01367 1.0769,0.38805 2.16559,0.76261 3.25391,1.13867 1.11719,0.38608 2.22791,0.77969 3.35742,1.15235 0.11036,0.0363 0.22167,0.0696 0.33203,0.10742 1.87918,0.61697 3.77313,1.2161 5.6875,1.79297 0.0877,0.0265 0.17599,0.0517 0.26367,0.0781 3.8928,1.16814 7.86143,2.24834 11.90821,3.22852 0.0998,0.0242 0.19904,0.0496 0.29882,0.0723 1.98426,0.47772 3.98847,0.9301 6.01172,1.35742 0.18342,0.0389 0.3671,0.0771 0.55078,0.11523 0.89001,0.18539 1.78393,0.36565 2.68164,0.54102 0.13403,0.0261 0.26817,0.0517 0.40235,0.0781 0.9645,0.18656 1.93268,0.36873 2.90625,0.54297 0.13617,0.0246 0.27371,0.0476 0.41015,0.0703 0.9704,0.1719 1.94429,0.33893 2.92383,0.49805 0.11414,0.017 0.22923,0.0377 0.34375,0.0566 6.4955,1.04474 13.19403,1.80975 20.11328,2.24609 0.0302,0.004 0.0596,0.004 0.0898,0.006 1.12656,0.0707 2.26,0.13068 3.39843,0.1836 0.0658,0.004 0.13151,0.009 0.19727,0.0117 1.14576,0.0521 2.29718,0.0929 3.45508,0.12695 0.0113,0 0.0199,0.002 0.0312,0.002 0.0125,3.4e-4 0.0277,-3.8e-4 0.0391,0 1.18602,0.034 2.37719,0.0591 3.57617,0.0742 8.47952,0.10201 17.28669,-0.29808 26.45117,-1.28125 13.09384,-1.4047 26.92068,-4.00577 41.57618,-8.04687 13.18877,-3.63667 27.04898,-8.44282 41.65039,-14.59571 1.62187,-0.68345 3.25425,-1.38458 4.89453,-2.10156 1.62894,-0.71202 3.26679,-1.44191 4.91406,-2.1875 0.0113,-0.004 0.0258,-0.008 0.0371,-0.0156 v -6.56446 c -0.0113,0.008 -0.0258,0.01 -0.0371,0.0137 -1.64727,0.74563 -3.28512,1.47548 -4.91406,2.1875 -1.64028,0.71698 -3.27266,1.41811 -4.89453,2.10157 -2.80899,1.18367 -5.58327,2.30146 -8.33789,3.38672 V 462.375 c 2.75462,-1.08526 5.5289,-2.20304 8.33789,-3.38672 1.62187,-0.68345 3.25425,-1.38458 4.89453,-2.10156 1.62894,-0.71203 3.26679,-1.44191 4.91406,-2.1875 0.0113,-0.004 0.0258,-0.006 0.0371,-0.0137 v -6.5625 c -0.0113,0.008 -0.0258,0.01 -0.0371,0.0137 -1.64727,0.74559 -3.28512,1.47547 -4.91406,2.1875 -1.64028,0.71698 -3.27266,1.41811 -4.89453,2.10156 -14.60141,6.15288 -28.46162,10.95904 -41.65039,14.5957 -14.6555,4.04111 -28.48234,6.64218 -41.57618,8.04688 -9.16448,0.98317 -17.97165,1.38326 -26.45117,1.28125 -1.19898,-0.0151 -2.39015,-0.0383 -3.57617,-0.0723 -0.0113,-3.7e-4 -0.0266,3.4e-4 -0.0391,0 -0.0113,-3e-4 -0.0199,-0.002 -0.0312,-0.002 -1.1579,-0.034 -2.30932,-0.0768 -3.45508,-0.12891 -0.0658,-0.003 -0.1315,-0.006 -0.19727,-0.01 -1.13843,-0.0529 -2.27187,-0.11292 -3.39843,-0.1836 -0.0302,-0.002 -0.0596,-0.004 -0.0898,-0.008 -6.91925,-0.43634 -13.61778,-1.20135 -20.11328,-2.24609 -0.11452,-0.0189 -0.22961,-0.0377 -0.34375,-0.0547 -0.97954,-0.15912 -1.95343,-0.32615 -2.92383,-0.49805 -0.13644,-0.0227 -0.27398,-0.0457 -0.41015,-0.0703 -0.97357,-0.17423 -1.94175,-0.35641 -2.90625,-0.54297 -0.13418,-0.0265 -0.26832,-0.052 -0.40235,-0.0781 -0.89771,-0.17537 -1.79163,-0.35563 -2.68164,-0.54102 -0.18368,-0.0382 -0.36736,-0.0763 -0.55078,-0.11523 -2.02325,-0.42732 -4.02746,-0.87969 -6.01172,-1.35742 -0.0998,-0.0227 -0.19906,-0.0481 -0.29882,-0.0723 -4.04678,-0.98018 -8.01541,-2.06038 -11.90821,-3.22852 -0.0877,-0.0264 -0.17598,-0.0517 -0.26367,-0.0781 -1.91437,-0.57687 -3.80832,-1.176 -5.6875,-1.79297 -0.11036,-0.0378 -0.22167,-0.0711 -0.33203,-0.10742 -1.12951,-0.37266 -2.24023,-0.76627 -3.35742,-1.15234 -1.08832,-0.37607 -2.17701,-0.75063 -3.25391,-1.13868 -0.92228,-0.33259 -1.83592,-0.67287 -2.75,-1.01367 -1.13151,-0.42179 -2.25967,-0.84736 -3.37891,-1.28125 -0.90024,-0.34923 -1.79504,-0.70222 -2.6875,-1.05859 -1.10143,-0.43975 -2.19724,-0.88377 -3.28711,-1.33399 -0.87381,-0.36094 -1.74472,-0.7245 -2.61132,-1.09179 -1.11606,-0.47286 -2.22375,-0.9511 -3.32813,-1.4336 -0.81554,-0.35641 -1.63206,-0.71109 -2.4414,-1.07226 -1.15703,-0.51625 -2.30456,-1.03929 -3.44922,-1.56446 -0.74725,-0.3428 -1.49813,-0.68301 -2.24024,-1.02929 -1.39854,-0.65254 -2.7831,-1.31333 -4.16406,-1.97657 -0.4334,-0.20824 -0.87295,-0.41201 -1.30469,-0.62109 -1.87478,-0.90795 -3.73582,-1.82366 -5.58008,-2.74609 -19.08117,-9.54376 -36.58427,-19.71604 -53.57226,-27.78906 -1.69822,-0.80709 -3.39108,-1.59307 -5.08008,-2.35547 h -0.002 c -1.68953,-0.76264 -3.37426,-1.50241 -5.05664,-2.21485 -3.3648,-1.42488 -6.71733,-2.74405 -10.06641,-3.93554 -3.34904,-1.1915 -6.69456,-2.25539 -10.04492,-3.16993 -0.94613,-0.25814 -1.89278,-0.50027 -2.83984,-0.73437 -0.30728,-0.076 -0.61449,-0.14738 -0.92188,-0.2207 -0.67688,-0.16139 -1.35366,-0.31823 -2.03125,-0.4668 -0.34356,-0.0756 -0.68735,-0.14852 -1.03125,-0.2207 -0.59562,-0.12473 -1.19273,-0.24133 -1.78906,-0.35547 -0.39753,-0.0763 -0.79549,-0.15475 -1.19336,-0.22657 -0.9309,-0.16743 -1.8618,-0.32582 -2.79492,-0.46679 h -0.002 c -0.9744,-0.14703 -1.95046,-0.27515 -2.92773,-0.39258 -0.27364,-0.034 -0.54829,-0.0612 -0.82227,-0.0918 -0.68587,-0.0763 -1.37301,-0.1458 -2.06054,-0.20703 -0.36057,-0.034 -0.72101,-0.0619 -1.08204,-0.0898 -0.65536,-0.0503 -1.31168,-0.0926 -1.96874,-0.12891 -0.32467,-0.0189 -0.64942,-0.0368 -0.97461,-0.0508 -0.81634,-0.0378 -1.63388,-0.059 -2.45313,-0.0723 -0.15383,-0.002 -0.30688,-0.0117 -0.46094,-0.0117 z m 0,6.5625 c 0.15405,0 0.30711,0.008 0.46094,0.01 0.81925,0.0132 1.63679,0.0345 2.45313,0.0723 0.32519,0.0129 0.64994,0.0319 0.97461,0.0508 0.65704,0.0363 1.3134,0.0786 1.96874,0.1289 0.36104,0.028 0.72147,0.0558 1.08204,0.0899 0.68753,0.0612 1.37467,0.13068 2.06054,0.20703 0.27398,0.0306 0.54863,0.0578 0.82227,0.0918 0.97727,0.11743 1.95333,0.24555 2.92773,0.39257 h 0.002 c 0.93312,0.14098 1.86402,0.29937 2.79492,0.4668 0.39787,0.0722 0.79583,0.15217 1.19336,0.22852 0.46607,0.0892 0.9325,0.18052 1.39844,0.27539 v 16.16601 c -0.46597,-0.0951 -0.93235,-0.18842 -1.39844,-0.27734 -0.39753,-0.0763 -0.79549,-0.15437 -1.19336,-0.22656 -0.9309,-0.16747 -1.8618,-0.32582 -2.79492,-0.4668 h -0.002 c -0.9744,-0.14691 -1.95046,-0.27503 -2.92773,-0.39258 -0.27364,-0.034 -0.54829,-0.0616 -0.82227,-0.0918 -0.68587,-0.0763 -1.37301,-0.14581 -2.06054,-0.20704 -0.36057,-0.034 -0.72098,-0.0634 -1.08204,-0.0898 -0.65536,-0.0503 -1.3117,-0.0911 -1.96874,-0.12891 -0.32468,-0.0204 -0.64942,-0.0394 -0.97461,-0.0508 -0.81634,-0.0382 -1.63388,-0.0571 -2.45313,-0.0723 -0.15381,0 -0.30688,-0.01 -0.46094,-0.01 v -0.004 c -0.0149,-1.5e-4 -0.03,1.2e-4 -0.0449,0 V 410.0117 c 0.0149,1.3e-4 0.03,-1.4e-4 0.0449,0 z m 35.51368,6.94726 c 3.31078,1.18074 6.62491,2.48402 9.95117,3.89258 1.68238,0.7124 3.36711,1.45221 5.05664,2.21484 h 0.002 c 1.05457,0.47603 2.11393,0.9769 3.17188,1.47071 v 16.16601 c -1.05795,-0.4938 -2.11731,-0.99465 -3.17188,-1.4707 h -0.002 c -1.68953,-0.7626 -3.37426,-1.5024 -5.05664,-2.21485 -3.32626,-1.40851 -6.64039,-2.71184 -9.95117,-3.89257 z m 35.55664,16.23633 c 5.93415,3.10039 12.01109,6.35426 18.18164,9.64453 v 16.16602 c -6.17055,-3.29027 -12.24749,-6.54416 -18.18164,-9.64453 z m 35.55664,18.7207 c 0.85176,0.43147 1.69077,0.86575 2.54882,1.29492 1.84427,0.92244 3.70531,1.83814 5.58008,2.7461 0.43174,0.20908 0.87129,0.41284 1.30469,0.62109 1.38096,0.66323 2.76552,1.32403 4.16406,1.97656 0.74211,0.34628 1.49299,0.6865 2.24024,1.0293 0.77851,0.35718 1.56245,0.71071 2.3457,1.06445 v 16.16602 c -0.78325,-0.35373 -1.56719,-0.70728 -2.3457,-1.06445 -0.74725,-0.34281 -1.49813,-0.6831 -2.24024,-1.0293 -1.39854,-0.65254 -2.7831,-1.31333 -4.16406,-1.97656 -0.4334,-0.20825 -0.87295,-0.41209 -1.30469,-0.6211 -1.87476,-0.90795 -3.73581,-1.82366 -5.58008,-2.74609 -0.85805,-0.42917 -1.69706,-0.86346 -2.54882,-1.29492 z m 35.55859,15.94922 c 0.48818,0.1844 0.97301,0.37207 1.46289,0.55469 0.91408,0.3408 1.82772,0.68107 2.75,1.01367 1.0769,0.38804 2.16559,0.76261 3.25391,1.13867 1.11719,0.38604 2.22791,0.77968 3.35742,1.15235 0.11036,0.0363 0.22167,0.0696 0.33203,0.10742 1.87918,0.61697 3.77313,1.2161 5.6875,1.79297 0.0877,0.0265 0.17599,0.0517 0.26367,0.0781 0.35456,0.1064 0.7184,0.20172 1.07422,0.30664 v 16.16602 c -0.35582,-0.10493 -0.71966,-0.20025 -1.07422,-0.30664 -0.0877,-0.0265 -0.17598,-0.0517 -0.26367,-0.0781 -1.91437,-0.57687 -3.80832,-1.176 -5.6875,-1.79297 -0.11036,-0.0378 -0.22167,-0.0696 -0.33203,-0.10742 -1.12951,-0.37266 -2.24023,-0.76626 -3.35742,-1.15234 -1.08832,-0.37606 -2.17701,-0.75063 -3.25391,-1.13867 -0.92228,-0.3326 -1.83592,-0.67276 -2.75,-1.01368 -0.48988,-0.18261 -0.97471,-0.37028 -1.46289,-0.55468 z m 160.41211,0.84961 v 16.16602 c -5.41951,1.81083 -10.73347,3.4356 -15.93945,4.87109 -0.75334,0.20773 -1.49517,0.39555 -2.24414,0.5957 v -16.16601 c 0.74897,-0.20015 1.4908,-0.38798 2.24414,-0.59571 5.20598,-1.43549 10.51994,-3.06026 15.93945,-4.87109 z m -35.55859,9.52734 v 16.16602 c -6.21335,1.23808 -12.27266,2.21517 -18.18165,2.94531 v -16.16601 c 5.90918,-0.73017 11.96807,-1.70718 18.18165,-2.94532 z m -89.29688,0.16797 c 0.10672,0.0223 0.21353,0.0442 0.32031,0.0664 0.89001,0.18535 1.78393,0.36565 2.68164,0.54101 0.13403,0.0261 0.26817,0.0536 0.40235,0.0801 0.9645,0.18656 1.93268,0.36874 2.90625,0.54297 0.13614,0.0246 0.27371,0.0476 0.41015,0.0703 0.9704,0.17186 1.94429,0.33893 2.92383,0.49805 0.11414,0.017 0.22923,0.0358 0.34375,0.0547 2.69329,0.43319 5.43096,0.8032 8.19531,1.13672 v 16.16797 c -2.76441,-0.33353 -5.50197,-0.70548 -8.19531,-1.13868 -0.11452,-0.0208 -0.22961,-0.0358 -0.34375,-0.0547 -0.97954,-0.15901 -1.95343,-0.32608 -2.92383,-0.49805 -0.13651,-0.0227 -0.27409,-0.0439 -0.41015,-0.0703 -0.97357,-0.17409 -1.94175,-0.35626 -2.90625,-0.54297 -0.1344,-0.0265 -0.26817,-0.0536 -0.40235,-0.0801 -0.89771,-0.17552 -1.79163,-0.35582 -2.68164,-0.54102 -0.10682,-0.0222 -0.21359,-0.0441 -0.32031,-0.0664 z m 53.74023,4.27539 v 16.16602 c -4.36633,0.2059 -8.64973,0.27908 -12.85156,0.22851 -1.19898,-0.0151 -2.39015,-0.0382 -3.57617,-0.0723 -0.0125,-3.4e-4 -0.0277,3.4e-4 -0.0391,0 -0.0113,-3e-4 -0.0199,-0.002 -0.0312,-0.002 -0.56487,-0.0166 -1.12366,-0.0417 -1.68555,-0.0625 V 482.7753 c 0.56189,0.0208 1.12068,0.0459 1.68555,0.0625 0.0113,0 0.0199,0.002 0.0312,0.002 0.0125,3.4e-4 0.0277,-3.7e-4 0.0391,0 1.18602,0.034 2.37719,0.0572 3.57617,0.0723 4.20183,0.0506 8.48523,-0.0226 12.85156,-0.22852 z"
         style="opacity:1;fill:#000000;fill-opacity:1;fill-rule:evenodd;stroke:none;stroke-width:18.89763832;stroke-linecap:butt;stroke-linejoin:round;stroke-miterlimit:4;stroke-dasharray:none;stroke-dashoffset:0;stroke-opacity:1"
         inkscape:connector-curvature="0" />
      <path
         inkscape:connector-curvature="0"
         style="opacity:1;fill:#000000;fill-opacity:1;fill-rule:evenodd;stroke:none;stroke-width:5;stroke-linecap:butt;stroke-linejoin:round;stroke-miterlimit:4;stroke-dasharray:none;stroke-dashoffset:0;stroke-opacity:1"
         d="m 70.090294,158.87648 c -0.21277,-0.002 -0.426165,-9e-4 -0.639755,0.003 -0.0578,0.001 -0.115771,0.003 -0.173633,0.005 -0.15589,0.004 -0.311827,0.009 -0.468188,0.016 -0.0686,0.003 -0.137477,0.007 -0.206187,0.0109 -0.13925,0.008 -0.278929,0.0166 -0.418581,0.0269 -0.0911,0.007 -0.182068,0.0138 -0.273368,0.0217 -0.114009,0.01 -0.228314,0.0214 -0.342614,0.0331 -0.10083,0.0103 -0.201763,0.0198 -0.302824,0.0315 -0.123589,0.0143 -0.247613,0.0311 -0.371554,0.0475 -0.256551,0.0341 -0.513398,0.0722 -0.771528,0.11575 -0.0217,0.004 -0.04341,0.007 -0.06511,0.0103 -0.14002,0.024 -0.280651,0.0507 -0.421161,0.0775 -0.0768,0.0146 -0.153519,0.0291 -0.230478,0.0445 -0.13485,0.0272 -0.269822,0.0565 -0.405143,0.0863 -0.0713,0.0157 -0.14255,0.0316 -0.21394,0.0481 -0.149849,0.0345 -0.30017,0.0702 -0.45062,0.10801 -0.043,0.0108 -0.0861,0.0225 -0.12919,0.0336 -0.169231,0.0435 -0.338477,0.0876 -0.508495,0.13539 -0.596702,0.16768 -1.198364,0.36193 -1.805575,0.58343 -0.1866,0.0681 -0.374052,0.13907 -0.561724,0.21239 -0.0299,0.0117 -0.05992,0.0233 -0.08992,0.0351 -0.18697,0.0738 -0.374179,0.15032 -0.562239,0.22944 -0.003,0.001 -0.0058,0.002 -0.0078,0.003 v 1.73633 c 0.002,-10e-4 0.0048,-0.002 0.0078,-0.003 0.18806,-0.0791 0.375269,-0.15565 0.562239,-0.22945 0.03,-0.0118 0.06002,-0.0234 0.08992,-0.0351 0.187672,-0.0733 0.375124,-0.14429 0.561724,-0.21238 0.607211,-0.22151 1.208873,-0.41575 1.805575,-0.58343 0.170016,-0.0478 0.339264,-0.0919 0.508495,-0.13539 0.04309,-0.0111 0.08619,-0.0228 0.12919,-0.0336 0.15045,-0.0378 0.300771,-0.0735 0.45062,-0.10801 0.07139,-0.0165 0.14264,-0.0324 0.21394,-0.0481 0.135321,-0.0298 0.270293,-0.0591 0.405143,-0.0863 0.02535,-0.005 0.05065,-0.01 0.07596,-0.0145 v 4.27571 c -0.02531,0.005 -0.05061,0.009 -0.07596,0.0145 -0.13485,0.0272 -0.269822,0.0565 -0.405143,0.0863 -0.0713,0.0157 -0.14255,0.0316 -0.21394,0.0481 -0.149849,0.0345 -0.30017,0.0702 -0.45062,0.108 -0.043,0.0108 -0.0861,0.0225 -0.12919,0.0336 -0.169231,0.0435 -0.338479,0.0876 -0.508495,0.13539 -0.596702,0.16768 -1.198364,0.36193 -1.805575,0.58343 -0.1866,0.0681 -0.374052,0.13909 -0.561724,0.21239 -0.0299,0.0117 -0.05992,0.0233 -0.08992,0.0351 -0.18697,0.0738 -0.374179,0.15035 -0.562239,0.22945 -0.003,0.001 -0.0058,0.002 -0.0078,0.003 v 1.73891 c 0.002,-0.001 0.0048,-0.002 0.0078,-0.003 0.18806,-0.0791 0.375269,-0.15565 0.562239,-0.22945 0.03,-0.0118 0.06002,-0.0234 0.08992,-0.0351 0.187672,-0.0733 0.375124,-0.14429 0.561724,-0.21238 0.607211,-0.22151 1.208873,-0.41575 1.805575,-0.58343 0.170018,-0.0478 0.339264,-0.0919 0.508495,-0.13539 0.04309,-0.0111 0.08619,-0.0228 0.12919,-0.0336 0.15045,-0.0378 0.300771,-0.0735 0.45062,-0.10801 0.07139,-0.0165 0.14264,-0.0324 0.21394,-0.0481 0.135321,-0.0298 0.270293,-0.0591 0.405143,-0.0863 0.07696,-0.0154 0.153678,-0.0298 0.230478,-0.0444 0.14051,-0.0268 0.281141,-0.0535 0.421161,-0.0775 0.0217,-0.003 0.04341,-0.006 0.06511,-0.0103 0.25813,-0.0436 0.514977,-0.0816 0.771528,-0.11575 0.123941,-0.0164 0.247965,-0.0333 0.371554,-0.0476 0.101061,-0.0117 0.201994,-0.0212 0.302824,-0.0315 0.1143,-0.0117 0.228605,-0.0231 0.342614,-0.0331 0.0913,-0.008 0.182272,-0.0147 0.273368,-0.0217 0.139652,-0.0103 0.279331,-0.0189 0.418581,-0.0269 0.06871,-0.004 0.137589,-0.008 0.206187,-0.0109 0.156361,-0.007 0.312298,-0.012 0.468188,-0.016 0.05786,-0.002 0.115835,-0.004 0.173633,-0.005 0.21359,-0.004 0.426985,-0.005 0.639755,-0.003 0.04076,0 0.08126,0.002 0.121957,0.003 0.21676,0.004 0.433067,0.009 0.649057,0.0191 0.08604,0.004 0.171963,0.009 0.257866,0.0139 0.173847,0.01 0.347498,0.0203 0.520895,0.0336 0.09552,0.007 0.190889,0.0148 0.28629,0.0238 0.181909,0.0162 0.363715,0.0346 0.545185,0.0548 0.07249,0.008 0.145158,0.0153 0.217559,0.0243 0.258569,0.0311 0.516818,0.065 0.774628,0.10387 h 5.19e-4 c 0.246888,0.0373 0.493188,0.0792 0.739489,0.1235 0.10527,0.019 0.210563,0.0397 0.315743,0.0599 0.157779,0.0302 0.315764,0.061 0.473356,0.0941 0.09099,0.0191 0.181951,0.0384 0.272851,0.0584 0.179279,0.0393 0.358344,0.0808 0.537435,0.12351 0.08133,0.0194 0.162613,0.0383 0.243914,0.0584 0.250576,0.0619 0.501044,0.12601 0.751374,0.19431 0.88645,0.24196 1.771619,0.52345 2.657719,0.8387 0.886111,0.31525 1.773134,0.66428 2.663404,1.04128 0.44513,0.1885 0.890881,0.38423 1.337903,0.58602 h 5.16e-4 c 0.446881,0.20171 0.894783,0.40967 1.344104,0.62321 4.494739,2.13599 9.125768,4.82741 14.174327,7.35253 0.487961,0.24406 0.980361,0.48634 1.476395,0.72657 0.11423,0.0553 0.23053,0.10923 0.3452,0.16433 0.36538,0.17548 0.73171,0.35031 1.10174,0.52296 0.19635,0.0916 0.39502,0.18164 0.59273,0.27234 0.30286,0.13895 0.60648,0.27734 0.91261,0.41393 0.21414,0.0956 0.43017,0.1894 0.64595,0.2837 0.2922,0.12766 0.58528,0.25419 0.88057,0.37931 0.22929,0.0972 0.45972,0.19337 0.69091,0.28887 0.28836,0.11912 0.5783,0.2366 0.86972,0.35295 0.23613,0.0943 0.47287,0.18768 0.71106,0.28008 0.29614,0.1148 0.59463,0.2274 0.89401,0.339 0.24185,0.0902 0.48358,0.1802 0.7276,0.2682 0.28493,0.10267 0.57298,0.20177 0.86093,0.30127 0.29559,0.10215 0.58947,0.2063 0.88832,0.3049 0.0292,0.01 0.0587,0.0184 0.0879,0.0284 0.4972,0.16324 0.99831,0.32176 1.50482,0.47439 0.0232,0.007 0.0466,0.0137 0.0698,0.0207 1.02997,0.30907 2.08,0.59487 3.15071,0.85421 0.0264,0.006 0.0527,0.0131 0.0791,0.0191 0.52501,0.1264 1.05529,0.24609 1.59061,0.35915 0.0485,0.0103 0.0971,0.0204 0.14572,0.0305 0.23548,0.0491 0.472,0.0967 0.70952,0.14314 0.0355,0.007 0.0709,0.0137 0.10646,0.0207 0.25519,0.0494 0.51135,0.0976 0.76894,0.14366 0.036,0.006 0.0724,0.0126 0.10852,0.0186 0.25675,0.0455 0.51443,0.0897 0.7736,0.13177 0.0302,0.005 0.0606,0.01 0.0909,0.015 1.7186,0.27642 3.49092,0.47883 5.32164,0.59428 0.008,10e-4 0.0158,10e-4 0.0238,0.002 0.29807,0.0187 0.59796,0.0346 0.89917,0.0486 0.0174,10e-4 0.0348,0.002 0.0522,0.003 0.30315,0.0138 0.6078,0.0246 0.91416,0.0336 0.003,0 0.005,4.4e-4 0.008,5.2e-4 0.003,9e-5 0.007,-1e-4 0.0103,0 0.3138,0.009 0.62896,0.0156 0.94619,0.0196 2.24354,0.027 4.57377,-0.0789 6.99854,-0.339 3.46442,-0.37166 7.12277,-1.05986 11.00037,-2.12907 3.48953,-0.9622 7.15671,-2.23383 11.02,-3.86178 0.42912,-0.18083 0.86102,-0.36634 1.29501,-0.55604 0.43099,-0.18839 0.86434,-0.3815 1.30018,-0.57877 0.003,-10e-4 0.007,-0.002 0.01,-0.004 v -1.73684 c -0.003,0.002 -0.007,0.003 -0.01,0.004 -0.43584,0.19729 -0.86919,0.39039 -1.30018,0.57878 -0.43399,0.1897 -0.86589,0.37521 -1.29501,0.55604 -0.74322,0.31318 -1.47724,0.60893 -2.20607,0.89607 v -4.27726 c 0.72883,-0.28714 1.46285,-0.58289 2.20607,-0.89607 0.42912,-0.18083 0.86102,-0.36634 1.29501,-0.55604 0.43099,-0.18839 0.86434,-0.3815 1.30018,-0.57877 0.003,-0.001 0.007,-0.002 0.01,-0.004 v -1.73633 c -0.003,0.002 -0.007,0.003 -0.01,0.004 -0.43584,0.19727 -0.86919,0.39038 -1.30018,0.57878 -0.43399,0.1897 -0.86589,0.3752 -1.29501,0.55603 -3.86329,1.62795 -7.53047,2.89958 -11.02,3.86178 -3.8776,1.06921 -7.53595,1.75741 -11.00037,2.12907 -2.42477,0.26013 -4.755,0.36599 -6.99854,0.339 -0.31723,-0.004 -0.63239,-0.0101 -0.94619,-0.0191 -0.003,-1e-4 -0.007,9e-5 -0.0103,0 -0.003,-8e-5 -0.005,-5.2e-4 -0.008,-5.2e-4 -0.30636,-0.009 -0.61101,-0.0203 -0.91416,-0.0341 -0.0174,-7.9e-4 -0.0348,-0.002 -0.0522,-0.003 -0.30121,-0.014 -0.6011,-0.0299 -0.89917,-0.0486 -0.008,-5.3e-4 -0.0158,-0.001 -0.0238,-0.002 -1.83072,-0.11545 -3.60304,-0.31786 -5.32164,-0.59428 -0.0303,-0.005 -0.0607,-0.01 -0.0909,-0.0145 -0.25917,-0.0421 -0.51685,-0.0863 -0.7736,-0.13178 -0.0361,-0.006 -0.0725,-0.0121 -0.10852,-0.0186 -0.25759,-0.0461 -0.51375,-0.0943 -0.76894,-0.14366 -0.0355,-0.007 -0.071,-0.0138 -0.10646,-0.0207 -0.23752,-0.0464 -0.47404,-0.0941 -0.70952,-0.14314 -0.0486,-0.0101 -0.0972,-0.0202 -0.14572,-0.0305 -0.53532,-0.11306 -1.0656,-0.23275 -1.59061,-0.35915 -0.0264,-0.006 -0.0527,-0.0127 -0.0791,-0.0191 -1.07071,-0.25934 -2.12074,-0.54515 -3.15071,-0.85422 -0.0232,-0.007 -0.0466,-0.0137 -0.0698,-0.0207 -0.50651,-0.15263 -1.00762,-0.31115 -1.50482,-0.47439 -0.0292,-0.01 -0.0587,-0.0188 -0.0879,-0.0284 -0.29885,-0.0986 -0.59273,-0.20274 -0.88832,-0.30489 -0.28795,-0.0995 -0.576,-0.1986 -0.86093,-0.30127 -0.24402,-0.088 -0.48575,-0.17803 -0.7276,-0.2682 -0.29938,-0.1116 -0.59787,-0.2242 -0.89401,-0.339 -0.23819,-0.0924 -0.47493,-0.1858 -0.71106,-0.28008 -0.29142,-0.11636 -0.58136,-0.23384 -0.86972,-0.35296 -0.23119,-0.0955 -0.46162,-0.19169 -0.69091,-0.28887 -0.29529,-0.12511 -0.58837,-0.25164 -0.88057,-0.3793 -0.21578,-0.0943 -0.43181,-0.18815 -0.64595,-0.2837 -0.30613,-0.1366 -0.60975,-0.27498 -0.91261,-0.41393 -0.19771,-0.0907 -0.39638,-0.18072 -0.59273,-0.27234 -0.37003,-0.17265 -0.73636,-0.34748 -1.10174,-0.52297 -0.11467,-0.0551 -0.23097,-0.10901 -0.3452,-0.16433 -0.496034,-0.24022 -0.988434,-0.48251 -1.476395,-0.72656 -5.048559,-2.52512 -9.679588,-5.21654 -14.174327,-7.35253 -0.449321,-0.21354 -0.897223,-0.4215 -1.344104,-0.62321 h -5.16e-4 c -0.447022,-0.20179 -0.892773,-0.39752 -1.337903,-0.58602 -0.89027,-0.377 -1.777293,-0.72603 -2.663404,-1.04128 -0.8861,-0.31525 -1.771269,-0.59673 -2.657719,-0.83871 -0.25033,-0.0683 -0.500798,-0.13236 -0.751374,-0.1943 -0.0813,-0.0201 -0.162584,-0.039 -0.243914,-0.0584 -0.179091,-0.0427 -0.358156,-0.0842 -0.537435,-0.12351 -0.0909,-0.02 -0.181861,-0.0393 -0.272851,-0.0584 -0.157592,-0.033 -0.315577,-0.0639 -0.473356,-0.0941 -0.10518,-0.0202 -0.210473,-0.041 -0.315743,-0.0599 -0.246301,-0.0443 -0.492601,-0.0862 -0.739489,-0.12351 h -5.19e-4 c -0.25781,-0.0389 -0.516059,-0.0728 -0.774628,-0.10387 -0.0724,-0.009 -0.145069,-0.0162 -0.217559,-0.0243 -0.18147,-0.0202 -0.363276,-0.0386 -0.545185,-0.0548 -0.0954,-0.009 -0.190767,-0.0164 -0.28629,-0.0238 -0.173397,-0.0133 -0.347048,-0.0245 -0.520895,-0.0341 -0.0859,-0.005 -0.171826,-0.01 -0.257866,-0.0134 -0.21599,-0.01 -0.432297,-0.0156 -0.649057,-0.0191 -0.0407,-5.3e-4 -0.0812,-0.003 -0.121957,-0.003 z m 0,1.73632 c 0.04076,0 0.08126,0.002 0.121957,0.003 0.21676,0.004 0.433067,0.009 0.649057,0.0191 0.08604,0.003 0.171963,0.008 0.257866,0.0134 0.173841,0.01 0.347503,0.0208 0.520895,0.0341 0.09553,0.007 0.190889,0.0148 0.28629,0.0238 0.181909,0.0162 0.363715,0.0346 0.545185,0.0548 0.07249,0.008 0.145158,0.0153 0.217559,0.0243 0.258569,0.0311 0.516818,0.065 0.774628,0.10386 h 5.19e-4 c 0.246888,0.0373 0.493188,0.0792 0.739489,0.12351 0.10527,0.0191 0.210563,0.0403 0.315743,0.0605 0.123314,0.0236 0.246724,0.0478 0.370004,0.0729 v 4.27725 c -0.123288,-0.0251 -0.246684,-0.0499 -0.370004,-0.0734 -0.10518,-0.0202 -0.210473,-0.0408 -0.315743,-0.0599 -0.246301,-0.0443 -0.492601,-0.0862 -0.739489,-0.12351 h -5.19e-4 c -0.25781,-0.0389 -0.516059,-0.0728 -0.774628,-0.10387 -0.0724,-0.009 -0.145069,-0.0163 -0.217559,-0.0243 -0.18147,-0.0202 -0.363276,-0.0386 -0.545185,-0.0548 -0.0954,-0.009 -0.190759,-0.0168 -0.28629,-0.0238 -0.173397,-0.0133 -0.347054,-0.0241 -0.520895,-0.0341 -0.0859,-0.005 -0.171826,-0.0104 -0.257866,-0.0134 -0.21599,-0.0101 -0.432297,-0.0151 -0.649057,-0.0191 -0.0407,0 -0.0812,-0.003 -0.121957,-0.003 v -0.001 c -0.004,-4e-5 -0.0079,3e-5 -0.01189,0 v -4.27571 c 0.004,3e-5 0.0079,-4e-5 0.01189,0 z m 9.396327,1.83813 c 0.875978,0.31241 1.752841,0.65723 2.632914,1.02991 0.44513,0.18849 0.890881,0.38424 1.337903,0.58601 h 5.16e-4 c 0.279021,0.12595 0.55931,0.25848 0.839226,0.38913 v 4.27726 c -0.279916,-0.13065 -0.560205,-0.26317 -0.839226,-0.38913 h -5.16e-4 c -0.447022,-0.20177 -0.892773,-0.39751 -1.337903,-0.58601 -0.880073,-0.37267 -1.756936,-0.71751 -2.632914,-1.02991 z m 9.407695,4.29587 c 1.570077,0.82031 3.177934,1.68123 4.810558,2.55178 v 4.27726 c -1.632624,-0.87055 -3.240481,-1.73148 -4.810558,-2.55179 z m 9.407694,4.95318 c 0.225361,0.11416 0.447349,0.22906 0.674375,0.34261 0.487963,0.24407 0.980363,0.48635 1.476395,0.72658 0.11423,0.0553 0.23053,0.10923 0.3452,0.16433 0.36538,0.17548 0.73171,0.35031 1.10174,0.52296 0.19635,0.0916 0.39502,0.18164 0.59273,0.27234 0.20598,0.0945 0.4134,0.18804 0.62063,0.28163 v 4.27726 c -0.20723,-0.0936 -0.41465,-0.18713 -0.62063,-0.28163 -0.19771,-0.0907 -0.39638,-0.18074 -0.59273,-0.27234 -0.37003,-0.17265 -0.73636,-0.34748 -1.10174,-0.52296 -0.11467,-0.0551 -0.23097,-0.10904 -0.3452,-0.16434 -0.496029,-0.24022 -0.988432,-0.48251 -1.476395,-0.72657 -0.227026,-0.11355 -0.449014,-0.22845 -0.674375,-0.34261 z m 9.40821,4.2199 c 0.12916,0.0488 0.25744,0.0984 0.38706,0.14676 0.24185,0.0902 0.48358,0.1802 0.7276,0.2682 0.28493,0.10267 0.57298,0.20177 0.86093,0.30127 0.29559,0.10214 0.58947,0.20629 0.88832,0.3049 0.0292,0.01 0.0587,0.0184 0.0879,0.0284 0.4972,0.16324 0.99831,0.32176 1.50482,0.47439 0.0232,0.007 0.0466,0.0137 0.0698,0.0207 0.0938,0.0281 0.19007,0.0534 0.28422,0.0811 v 4.27726 c -0.0941,-0.0278 -0.19041,-0.053 -0.28422,-0.0811 -0.0232,-0.007 -0.0466,-0.0137 -0.0698,-0.0207 -0.50651,-0.15263 -1.00762,-0.31115 -1.50482,-0.47439 -0.0292,-0.01 -0.0587,-0.0184 -0.0879,-0.0284 -0.29885,-0.0986 -0.59273,-0.20274 -0.88832,-0.30489 -0.28795,-0.0995 -0.576,-0.1986 -0.86093,-0.30127 -0.24402,-0.088 -0.48575,-0.178 -0.7276,-0.2682 -0.12962,-0.0483 -0.2579,-0.098 -0.38706,-0.14676 z m 42.44237,0.22479 v 4.27726 c -1.43391,0.47912 -2.8399,0.909 -4.21731,1.28881 -0.19932,0.055 -0.3956,0.10466 -0.59376,0.15761 v -4.27725 c 0.19816,-0.053 0.39444,-0.10266 0.59376,-0.15762 1.37741,-0.37981 2.7834,-0.80969 4.21731,-1.28881 z m -9.40821,2.52078 v 4.27726 c -1.64395,0.32757 -3.24714,0.58609 -4.81056,0.77928 v -4.27726 c 1.56347,-0.19319 3.16655,-0.45169 4.81056,-0.77928 z m -23.62647,0.0444 c 0.0282,0.006 0.0565,0.0117 0.0847,0.0176 0.23548,0.049 0.472,0.0967 0.70952,0.14314 0.0355,0.007 0.0709,0.0142 0.10646,0.0212 0.25519,0.0494 0.51135,0.0976 0.76894,0.14366 0.036,0.007 0.0724,0.0126 0.10852,0.0186 0.25675,0.0455 0.51443,0.0897 0.7736,0.13178 0.0302,0.004 0.0606,0.009 0.0909,0.0145 0.7126,0.11461 1.43694,0.21251 2.16834,0.30076 v 4.27777 c -0.73142,-0.0882 -1.45573,-0.18666 -2.16834,-0.30127 -0.0303,-0.006 -0.0607,-0.009 -0.0909,-0.0145 -0.25917,-0.0421 -0.51685,-0.0863 -0.7736,-0.13178 -0.0361,-0.006 -0.0725,-0.0116 -0.10852,-0.0186 -0.25759,-0.0461 -0.51375,-0.0943 -0.76894,-0.14366 -0.0356,-0.007 -0.071,-0.0142 -0.10646,-0.0212 -0.23752,-0.0464 -0.47404,-0.0941 -0.70952,-0.14314 -0.0283,-0.006 -0.0565,-0.0117 -0.0847,-0.0176 z m 14.21877,1.1312 v 4.27725 c -1.15525,0.0545 -2.28857,0.0738 -3.40031,0.0605 -0.31723,-0.004 -0.63239,-0.0101 -0.94619,-0.0191 -0.003,-9e-5 -0.007,9e-5 -0.0103,0 -0.003,-8e-5 -0.005,-5.2e-4 -0.008,-5.2e-4 -0.14946,-0.004 -0.2973,-0.011 -0.44597,-0.0165 v -4.27726 c 0.14867,0.006 0.29651,0.0121 0.44597,0.0165 0.003,0 0.005,4.4e-4 0.008,5.2e-4 0.003,9e-5 0.007,-1e-4 0.0103,0 0.3138,0.009 0.62896,0.0151 0.94619,0.0191 1.11174,0.0134 2.24506,-0.006 3.40031,-0.0605 z"
         id="path4257" />
    </g>
  </g>
</svg>
