<?xml version="1.0" encoding="UTF-8" standalone="no"?>
<!-- Created with Inkscape (http://www.inkscape.org/) -->

<svg
   xmlns:dc="http://purl.org/dc/elements/1.1/"
   xmlns:cc="http://creativecommons.org/ns#"
   xmlns:rdf="http://www.w3.org/1999/02/22-rdf-syntax-ns#"
   xmlns:svg="http://www.w3.org/2000/svg"
   xmlns="http://www.w3.org/2000/svg"
   xmlns:sodipodi="http://sodipodi.sourceforge.net/DTD/sodipodi-0.dtd"
   xmlns:inkscape="http://www.inkscape.org/namespaces/inkscape"
   width="125"
   height="100"
   viewBox="0 0 33.072916 26.458334"
   version="1.1"
   id="svg5194"
   inkscape:version="0.92.3 (2405546, 2018-03-11)"
   sodipodi:docname="logo.svg">
  <defs
     id="defs5188" />
  <sodipodi:namedview
     id="base"
     pagecolor="#ffffff"
     bordercolor="#666666"
     borderopacity="1.0"
     inkscape:pageopacity="0.0"
     inkscape:pageshadow="2"
     inkscape:zoom="2.8"
     inkscape:cx="62.838048"
     inkscape:cy="53.174784"
     inkscape:document-units="px"
     inkscape:current-layer="layer1"
     showgrid="false"
     units="px"
     inkscape:window-width="1366"
     inkscape:window-height="705"
     inkscape:window-x="-8"
     inkscape:window-y="310"
     inkscape:window-maximized="1" />
  <metadata
     id="metadata5191">
    <rdf:RDF>
      <cc:Work
         rdf:about="">
        <dc:format>image/svg+xml</dc:format>
        <dc:type
           rdf:resource="http://purl.org/dc/dcmitype/StillImage" />
        <dc:title></dc:title>
      </cc:Work>
    </rdf:RDF>
  </metadata>
  <g
     inkscape:label="Layer 1"
     inkscape:groupmode="layer"
     id="layer1"
     transform="translate(0,-270.54165)">
    <g
       id="layer1-8"
       transform="matrix(0.23364282,0,0,0.21438587,69.351752,252.96168)">
      <path
         id="path4537"
         d="m -168.41474,143.95866 -18.38109,14.66426 -0.26458,-22.225 z"
         style="opacity:1;fill:#000000;stroke:none;stroke-width:0.39608124;stroke-linecap:butt;stroke-linejoin:miter;stroke-miterlimit:4;stroke-dasharray:none;stroke-opacity:1"
         inkscape:connector-curvature="0" />
      <path
         id="path4535"
         d="m -285.30587,141.57533 19.66421,-11.792 1.32291,11.64167 z"
         style="opacity:1;fill:#000000;stroke:none;stroke-width:0.39608124;stroke-linecap:butt;stroke-linejoin:miter;stroke-miterlimit:4;stroke-dasharray:none;stroke-opacity:1"
         inkscape:connector-curvature="0" />
      <path
         transform="scale(0.26458333)"
         id="path4517"
         d="m -855.34375,315.69727 -5.00391,2.89062 -5,2.89063 h 0.004 c -52.91921,30.57428 -98.17544,56.67957 -151.74804,87.60937 l -9.7344,5.62109 -4.2578,183.39063 c -0.059,1.04455 -0.1162,2.11452 -0.1562,3.12891 l -0.016,0.39453 v 0.39843 c -10e-5,94.72581 77.19024,171.91621 171.91605,171.91602 94.7258,1.5e-4 171.91624,-77.19021 171.91601,-171.91602 v -0.0684 -0.13671 -0.0684 c -0.17801,-13.0187 0.75406,-50.219 1.76172,-86.86133 1.00766,-36.6443 2.07422,-72.96325 2.07422,-88.47852 v -11.53125 l -9.98047,-5.77734 c -52.17075,-30.19922 -103.37937,-59.6867 -151.76953,-87.625 h -0.002 z"
         style="color:#000000;font-style:normal;font-variant:normal;font-weight:normal;font-stretch:normal;font-size:medium;line-height:normal;font-family:sans-serif;font-variant-ligatures:normal;font-variant-position:normal;font-variant-caps:normal;font-variant-numeric:normal;font-variant-alternates:normal;font-feature-settings:normal;text-indent:0;text-align:start;text-decoration:none;text-decoration-line:none;text-decoration-style:solid;text-decoration-color:#000000;letter-spacing:normal;word-spacing:normal;text-transform:none;writing-mode:lr-tb;direction:ltr;text-orientation:mixed;dominant-baseline:auto;baseline-shift:baseline;text-anchor:start;white-space:normal;shape-padding:0;clip-rule:nonzero;display:inline;overflow:visible;visibility:visible;opacity:1;isolation:auto;mix-blend-mode:normal;color-interpolation:sRGB;color-interpolation-filters:linearRGB;solid-color:#000000;solid-opacity:1;vector-effect:none;fill:#000000;fill-opacity:1;fill-rule:nonzero;stroke:none;stroke-width:1.49699998;stroke-linecap:butt;stroke-linejoin:miter;stroke-miterlimit:4;stroke-dasharray:none;stroke-dashoffset:0;stroke-opacity:1;color-rendering:auto;image-rendering:auto;shape-rendering:auto;text-rendering:auto;enable-background:accumulate"
         inkscape:connector-curvature="0" />
      <path
         id="path4502"
         transform="scale(0.26458333)"
         d="m -855.33984,338.79492 c -52.92582,30.5781 -98.18291,56.68555 -151.75196,87.61328 l -4,172.33594 c -0.066,1.14108 -0.1253,2.29998 -0.1641,3.27739 -2e-4,83.90099 68.01507,151.91621 151.91606,151.91602 83.90097,1.6e-4 151.91618,-68.01505 151.91601,-151.91602 -0.39379,-28.79647 3.83594,-146.49269 3.83594,-175.61333 -52.14467,-30.1846 -103.34703,-59.66648 -151.75195,-87.61328 z"
         style="opacity:1;fill:#000000;stroke:#ff0000;stroke-width:1.49699998;stroke-miterlimit:4;stroke-dasharray:none"
         inkscape:connector-curvature="0" />
      <path
         id="path4508"
         d="m -226.30933,86.58386 -1.32292,0.764813 c -14.00242,8.089955 -25.97658,14.997267 -40.15052,23.180497 l -1.28778,0.74362 -1.09244,47.06638 c -0.0164,0.28876 -0.0321,0.5812 -0.0423,0.84078 l -0.002,0.0522 v 0.0527 c -2e-5,23.62872 19.21158,42.84033 42.8403,42.84028 23.62871,4e-5 42.84032,-19.21156 42.84027,-42.84028 v -0.0181 -0.0181 c -0.0496,-3.63075 0.20046,-13.39281 0.46716,-23.0911 0.26669,-9.69829 0.54777,-19.35656 0.54777,-23.33708 v -1.52549 l -1.32033,-0.76429 c -13.80006,-7.98834 -27.34839,-15.789401 -40.15362,-23.182563 z"
         style="color:#000000;font-style:normal;font-variant:normal;font-weight:normal;font-stretch:normal;font-size:medium;line-height:normal;font-family:sans-serif;font-variant-ligatures:normal;font-variant-position:normal;font-variant-caps:normal;font-variant-numeric:normal;font-variant-alternates:normal;font-feature-settings:normal;text-indent:0;text-align:start;text-decoration:none;text-decoration-line:none;text-decoration-style:solid;text-decoration-color:#000000;letter-spacing:normal;word-spacing:normal;text-transform:none;writing-mode:lr-tb;direction:ltr;text-orientation:mixed;dominant-baseline:auto;baseline-shift:baseline;text-anchor:start;white-space:normal;shape-padding:0;clip-rule:nonzero;display:inline;overflow:visible;visibility:visible;opacity:1;isolation:auto;mix-blend-mode:normal;color-interpolation:sRGB;color-interpolation-filters:linearRGB;solid-color:#000000;solid-opacity:1;vector-effect:none;fill:#000000;fill-opacity:1;fill-rule:nonzero;stroke:none;stroke-width:0.39608124;stroke-linecap:butt;stroke-linejoin:miter;stroke-miterlimit:4;stroke-dasharray:none;stroke-dashoffset:0;stroke-opacity:1;color-rendering:auto;image-rendering:auto;shape-rendering:auto;text-rendering:auto;enable-background:accumulate"
         inkscape:connector-curvature="0" />
      <path
         id="path4532"
         d="m -285.30587,141.57533 v 3.03058 30.04441 l 116.89113,-30.69166 v -33.07499 z"
         style="color:#000000;font-style:normal;font-variant:normal;font-weight:normal;font-stretch:normal;font-size:medium;line-height:normal;font-family:sans-serif;font-variant-ligatures:normal;font-variant-position:normal;font-variant-caps:normal;font-variant-numeric:normal;font-variant-alternates:normal;font-feature-settings:normal;text-indent:0;text-align:start;text-decoration:none;text-decoration-line:none;text-decoration-style:solid;text-decoration-color:#000000;letter-spacing:normal;word-spacing:normal;text-transform:none;writing-mode:lr-tb;direction:ltr;text-orientation:mixed;dominant-baseline:auto;baseline-shift:baseline;text-anchor:start;white-space:normal;shape-padding:0;clip-rule:nonzero;display:inline;overflow:visible;visibility:visible;opacity:1;isolation:auto;mix-blend-mode:normal;color-interpolation:sRGB;color-interpolation-filters:linearRGB;solid-color:#000000;solid-opacity:1;vector-effect:none;fill:#000000;fill-opacity:1;fill-rule:nonzero;stroke:none;stroke-width:0.39608124;stroke-linecap:butt;stroke-linejoin:miter;stroke-miterlimit:4;stroke-dasharray:none;stroke-dashoffset:0;stroke-opacity:1;color-rendering:auto;image-rendering:auto;shape-rendering:auto;text-rendering:auto;enable-background:accumulate"
         inkscape:connector-curvature="0" />
      <rect
         transform="matrix(0.96721523,-0.25395808,0,1,0,0)"
         ry="0"
         y="69.694199"
         x="-291.84381"
         height="27.013834"
         width="114.58923"
         id="rect4524"
         style="opacity:1;fill:#ffffff;stroke:none;stroke-width:0.40273812;stroke-miterlimit:4;stroke-dasharray:none" />
      <text
         transform="skewY(-14.711855)"
         id="text4522"
         y="90.88269"
         x="-278.50491"
         style="font-style:normal;font-variant:normal;font-weight:normal;font-stretch:normal;font-size:23.03346062px;line-height:1.25;font-family:Stencil;-inkscape-font-specification:'Stencil, Normal';font-variant-ligatures:normal;font-variant-caps:normal;font-variant-numeric:normal;font-feature-settings:normal;text-align:start;letter-spacing:0px;word-spacing:0px;writing-mode:lr-tb;text-anchor:start;opacity:1;fill:#000000;fill-opacity:1;stroke:none;stroke-width:0.39608124;stroke-miterlimit:4;stroke-dasharray:none"
         xml:space="preserve"><tspan
           style="font-style:normal;font-variant:normal;font-weight:normal;font-stretch:normal;font-size:23.03346062px;font-family:Stencil;-inkscape-font-specification:'Stencil, Normal';font-variant-ligatures:normal;font-variant-caps:normal;font-variant-numeric:normal;font-feature-settings:normal;text-align:start;writing-mode:lr-tb;text-anchor:start;stroke-width:0.39608124;stroke-miterlimit:4;stroke-dasharray:none"
           y="90.88269"
           x="-278.50491"
           id="tspan4520">SINCLAIR</tspan></text>
      <g
         id="text4543"
         style="font-style:normal;font-variant:normal;font-weight:normal;font-stretch:normal;font-size:15.28339195px;line-height:3;font-family:Stencil;-inkscape-font-specification:'Stencil, Normal';font-variant-ligatures:normal;font-variant-caps:normal;font-variant-numeric:normal;font-feature-settings:normal;text-align:start;letter-spacing:4.76249981px;word-spacing:0px;writing-mode:lr-tb;text-anchor:start;opacity:1;fill:#5dc21e;fill-opacity:1;stroke:none;stroke-width:0.36274818;stroke-miterlimit:4;stroke-dasharray:none"
         transform="matrix(1.0918904,0,0,1.0918904,20.75591,-16.884107)"
         aria-label="games">
        <path
           id="path4548"
           style="font-style:normal;font-variant:normal;font-weight:normal;font-stretch:normal;font-size:15.28339195px;line-height:3;font-family:Stencil;-inkscape-font-specification:'Stencil, Normal';font-variant-ligatures:normal;font-variant-caps:normal;font-variant-numeric:normal;font-feature-settings:normal;text-align:start;letter-spacing:4.76249981px;writing-mode:lr-tb;text-anchor:start;fill:#5dc21e;fill-opacity:1;stroke-width:0.36274818;stroke-miterlimit:4;stroke-dasharray:none"
           d="m -244.24718,177.24191 -0.5818,0.58964 q -0.57753,-0.3497 -1.20126,0.28243 l -4.8798,4.94548 q -0.28304,0.28685 -0.35536,0.51952 -0.0567,0.19563 0.0773,0.50607 l -0.59228,0.60026 q -0.16999,-0.16773 -0.2872,-0.33581 -0.11191,-0.16284 -0.26702,-0.47314 -0.36906,-0.74159 -0.43272,-1.5802 -0.0636,-0.83861 0.18406,-1.67403 0.39235,-1.30075 1.54547,-2.4694 1.11643,-1.13145 2.38499,-1.60959 1.26855,-0.47813 2.51555,-0.23317 0.72387,0.13764 1.34899,0.50285 0.25958,0.1513 0.54112,0.42909 z m -0.13573,1.00881 0.56607,-0.57369 q 0.78724,0.93403 1.10913,1.72343 0.0913,0.23685 0.1816,0.32595 0.085,0.0839 0.16418,0.0886 0.0897,0.005 0.4113,-0.045 0.22665,-0.0385 0.37008,0.10307 0.14873,0.14676 0.1233,0.2894 -0.0149,0.14258 -0.20357,0.33381 l -2.03892,2.06638 q -0.39835,0.40371 -0.69583,0.11019 -0.14873,-0.14676 -0.14448,-0.29982 0.01,-0.14782 0.17645,-0.44445 0.21384,-0.37609 0.39454,-0.9736 0.18594,-0.60282 0.22009,-1.01993 0.0443,-0.4805 -0.10608,-0.86999 -0.14512,-0.3948 -0.52786,-0.8144 z m -3.44844,8.29734 q -0.42214,0.003 -0.99819,-0.12525 -0.56549,-0.12814 -1.00469,-0.3099 -0.39692,-0.17149 -0.81565,-0.44837 -0.41342,-0.27164 -0.67902,-0.53371 l 0.59228,-0.60026 q 0.19074,0.11482 0.31752,0.13508 0.1321,0.0255 0.27956,-0.0177 0.25279,-0.0756 0.50438,-0.33054 l 1.53051,-1.55111 q 0.20442,-0.20717 0.21384,-0.37609 0.0152,-0.0898 -0.0115,-0.13713 -0.0215,-0.0526 -0.18146,-0.30485 -0.19207,-0.31533 0.0386,-0.54906 0.13628,-0.13811 0.32652,-0.0972 0.19556,0.0462 0.42929,0.27681 l 0.17529,0.17297 1.9442,1.91837 q 0.23904,0.23587 0.26652,0.39927 0.038,0.16333 -0.12446,0.328 -0.0996,0.10093 -0.21022,0.12806 -0.10008,0.0271 -0.2797,-0.003 -0.17962,-0.0305 -0.26908,0.007 -0.0895,0.0375 -0.25719,0.20752 z"
           inkscape:connector-curvature="0" />
        <path
           id="path4550"
           style="font-style:normal;font-variant:normal;font-weight:normal;font-stretch:normal;font-size:15.28339195px;line-height:3;font-family:Stencil;-inkscape-font-specification:'Stencil, Normal';font-variant-ligatures:normal;font-variant-caps:normal;font-variant-numeric:normal;font-feature-settings:normal;text-align:start;letter-spacing:4.76249981px;writing-mode:lr-tb;text-anchor:start;fill:#5dc21e;fill-opacity:1;stroke-width:0.36274818;stroke-miterlimit:4;stroke-dasharray:none"
           d="m -236.86794,182.58104 2.80467,1.08556 -1.23035,8.92623 q -0.0278,0.23729 -0.0229,0.43126 0.0115,0.15647 0.19488,0.32349 0.15131,0.14659 0.19128,0.25008 0.04,0.10349 -0.0112,0.23572 -0.14007,0.3619 -0.68291,0.15179 l -3.47278,-1.34415 q -0.20878,-0.0808 -0.29634,-0.22673 -0.0849,-0.15288 -0.0202,-0.31991 0.0539,-0.13919 0.13649,-0.18723 0.0826,-0.048 0.31788,-0.077 0.16613,-0.0157 0.25413,-0.0777 0.088,-0.062 0.13648,-0.18724 0.0458,-0.11831 0.0599,-0.21686 l 0.16788,-1.09533 -1.9417,-0.75153 0.50846,-0.75545 1.55892,0.60338 0.90942,-6.15369 z m -1.1644,1.58184 -0.20266,1.57799 -2.97195,4.01905 q -0.1311,0.17331 -0.19575,0.34034 -0.1697,0.43845 0.16818,0.78528 l 0.20048,0.20563 q 0.18926,0.19328 0.095,0.43687 -0.13468,0.34797 -0.64272,0.15133 l -1.76771,-0.6842 q -0.2575,-0.0997 -0.37021,-0.26332 -0.10305,-0.16792 -0.0303,-0.35582 0.0781,-0.20183 0.43552,-0.21553 0.33382,-0.0148 0.50376,-0.0611 0.1796,-0.0505 0.37221,-0.17602 0.30531,-0.20991 0.61375,-0.63467 z"
           inkscape:connector-curvature="0" />
        <path
           id="path4552"
           style="font-style:normal;font-variant:normal;font-weight:normal;font-stretch:normal;font-size:15.28339195px;line-height:3;font-family:Stencil;-inkscape-font-specification:'Stencil, Normal';font-variant-ligatures:normal;font-variant-caps:normal;font-variant-numeric:normal;font-feature-settings:normal;text-align:start;letter-spacing:4.76249981px;writing-mode:lr-tb;text-anchor:start;fill:#5dc21e;fill-opacity:1;stroke-width:0.36274818;stroke-miterlimit:4;stroke-dasharray:none"
           d="m -223.7503,184.50437 3.30472,-0.23954 0.20097,-0.0146 q 0.55823,-0.0405 0.58628,0.34657 0.0221,0.30517 -0.26859,0.42351 -0.23969,0.0997 -0.28273,0.12524 -0.0361,0.0176 -0.0759,0.0878 -0.0807,0.12556 -0.0618,0.38607 l 0.54004,7.45051 q 0.0189,0.26051 0.11683,0.37312 0.0495,0.0638 0.0883,0.0834 0.0457,0.0117 0.29729,0.0757 0.30473,0.0752 0.32685,0.38034 0.0281,0.38704 -0.53017,0.4275 l -0.20096,0.0146 -3.31217,0.24008 -0.24562,0.0178 q -0.3275,0.0237 -0.5057,-0.0606 -0.1713,-0.0923 -0.18587,-0.2933 -0.0237,-0.3275 0.3276,-0.43527 0.28488,-0.0955 0.33591,-0.11413 0.0505,-0.0261 0.0977,-0.0969 0.10194,-0.14207 0.0809,-0.43235 z m -2.73905,0.19853 1.76894,4.06928 0.48408,-2.30218 0.17912,2.4711 -1.30124,5.893 -0.39449,0.0286 -3.50887,-8.35765 q -0.18015,-0.4209 -0.35468,-0.5579 -0.10378,-0.0897 -0.34519,-0.11714 -0.49136,-0.0691 -0.51725,-0.4264 -0.014,-0.19352 0.11239,-0.30743 0.13333,-0.1219 0.39384,-0.14078 z m -2.63974,3.63314 0.95189,2.19062 0.16239,2.24036 q 0.0248,0.34238 0.0579,0.48963 0.0406,0.1467 0.14282,0.31886 0.18005,0.31616 0.46731,0.45995 l 0.28834,0.15867 q 0.29525,0.15069 0.31035,0.3591 0.0275,0.3796 -0.53071,0.42006 l -1.86821,0.13541 q -0.55823,0.0405 -0.58521,-0.33169 -0.009,-0.11909 0.0317,-0.18187 0.0472,-0.0708 0.18273,-0.16289 0.79381,-0.50647 0.71397,-1.60804 z"
           inkscape:connector-curvature="0" />
        <path
           id="path4554"
           style="font-style:normal;font-variant:normal;font-weight:normal;font-stretch:normal;font-size:15.28339195px;line-height:3;font-family:Stencil;-inkscape-font-specification:'Stencil, Normal';font-variant-ligatures:normal;font-variant-caps:normal;font-variant-numeric:normal;font-feature-settings:normal;text-align:start;letter-spacing:4.76249981px;writing-mode:lr-tb;text-anchor:start;fill:#5dc21e;fill-opacity:1;stroke-width:0.36274818;stroke-miterlimit:4;stroke-dasharray:none"
           d="m -214.63413,181.43482 4.97603,8.88834 -2.89767,1.62223 -0.1693,0.0948 q -0.23442,0.13123 -0.41204,0.11949 -0.17476,-0.0219 -0.26589,-0.18469 -0.14947,-0.26697 0.0636,-0.49744 0.17478,-0.19193 0.20005,-0.22318 0.0281,-0.0414 0.0344,-0.12188 0.0198,-0.14794 -0.10778,-0.37584 l -3.64909,-6.51812 q -0.12759,-0.22791 -0.26405,-0.28835 -0.0719,-0.0367 -0.11824,-0.0279 -0.0435,-0.001 -0.29848,0.0474 -0.30786,0.0612 -0.45732,-0.2058 -0.0911,-0.16279 -0.0148,-0.31671 0.0792,-0.16407 0.31361,-0.29531 l 0.1693,-0.0948 z m 0.57953,-0.32445 2.62418,-1.46911 1.29048,2.30511 q 0.11301,0.20186 0.0859,0.33677 -0.0271,0.1349 -0.1964,0.22969 -0.14326,0.0802 -0.24118,0.058 -0.0979,-0.0221 -0.25861,-0.17167 -0.67031,-0.61682 -1.37454,-0.74426 -0.69772,-0.1311 -1.50332,0.21728 z m 2.62133,4.75868 -0.42288,-0.75534 q 0.2756,-0.39377 0.33763,-0.71072 0.062,-0.31696 -0.0538,-0.72249 -0.0864,-0.2766 -0.0528,-0.41515 0.03,-0.14507 0.18625,-0.23256 0.20837,-0.11665 0.37764,0.002 0.093,0.0591 0.26066,0.35867 l 1.38892,2.48092 q 0.17133,0.30605 0.16533,0.46336 5e-4,0.15366 -0.18183,0.25573 -0.14976,0.0838 -0.28545,0.0401 -0.13569,-0.0438 -0.30808,-0.22949 -0.36223,-0.38733 -0.70549,-0.5116 -0.33674,-0.12792 -0.70606,-0.0238 z m 2.36121,4.12602 -0.3937,-0.70325 q 0.3868,-0.30207 0.59467,-0.57239 0.21438,-0.27396 0.35949,-0.67164 0.14512,-0.39769 0.16574,-0.74278 0.0235,-0.35524 -0.0637,-0.86234 -0.045,-0.24847 -0.007,-0.36385 0.0344,-0.12188 0.17114,-0.19844 0.18232,-0.10207 0.31592,-0.0315 0.12996,0.0641 0.27942,0.33106 l 1.28684,2.2986 z"
           inkscape:connector-curvature="0" />
        <path
           id="path4556"
           style="font-style:normal;font-variant:normal;font-weight:normal;font-stretch:normal;font-size:15.28339195px;line-height:3;font-family:Stencil;-inkscape-font-specification:'Stencil, Normal';font-variant-ligatures:normal;font-variant-caps:normal;font-variant-numeric:normal;font-feature-settings:normal;text-align:start;letter-spacing:4.76249981px;writing-mode:lr-tb;text-anchor:start;fill:#5dc21e;fill-opacity:1;stroke-width:0.36274818;stroke-miterlimit:4;stroke-dasharray:none"
           d="m -207.81937,175.41281 0.67027,0.53595 q -0.18986,0.44059 -0.13383,0.8007 0.0549,0.34963 0.35794,0.59197 0.29142,0.23302 0.63874,0.25275 0.34148,0.0151 0.82393,-0.18202 0.32979,-0.1376 1.39839,-0.69729 0.64674,-0.3428 1.06161,-0.47926 0.41371,-0.14695 0.8927,-0.18436 1.27266,-0.10987 2.26932,0.68706 0.75187,0.6012 1.07725,1.47288 0.32538,0.87169 0.15895,1.80876 -0.0931,0.49884 -0.32375,1.00237 -0.22015,0.50237 -0.5091,0.86374 l -0.66444,-0.53129 q 0.28306,-0.60495 0.2445,-0.99886 -0.0397,-0.40441 -0.41275,-0.70267 -0.3905,-0.31225 -0.96738,-0.20023 -0.37875,0.0794 -1.18631,0.50378 -0.88797,0.46523 -1.2364,0.62615 -0.34378,0.15509 -0.7202,0.25541 -1.65717,0.47126 -2.95691,-0.56801 -0.66445,-0.53129 -1.00494,-1.25263 -0.34632,-0.726 -0.29872,-1.49055 0.0673,-1.06408 0.82113,-2.11435 z m 1.03844,0.0755 -0.64113,-0.51264 q 0.30294,-0.33107 0.57794,-0.5316 0.26917,-0.20518 0.84483,-0.51883 0.13984,-0.0793 0.20043,-0.15506 0.0885,-0.11074 0.0547,-0.22378 l -0.0665,-0.26338 q -0.0537,-0.19578 0.0535,-0.32984 0.12583,-0.15737 0.29833,-0.1341 0.17132,0.0128 0.41612,0.20852 l 1.92339,1.53793 q 0.16902,0.13515 0.20053,0.32279 0.0304,0.17714 -0.0908,0.32868 -0.0932,0.11657 -0.24821,0.15507 -0.0886,0.0152 -0.18064,-0.001 -0.0932,-0.0268 -0.27392,-0.12347 -0.33685,-0.16424 -0.76577,-0.24922 -0.42891,-0.085 -0.83565,-0.0662 -0.80765,0.0421 -1.46718,0.55628 z m 6.32535,6.30942 0.66444,0.53129 q -0.38215,0.47793 -1.11747,0.83591 -0.27152,0.13642 -0.36591,0.19472 -0.0944,0.0583 -0.15497,0.13407 -0.0932,0.11657 -0.099,0.20747 -0.0116,0.0863 0.0374,0.33565 0.0443,0.20744 -0.0535,0.32984 -0.26098,0.32639 -0.76223,-0.0744 l -2.12155,-1.69639 q -0.1632,-0.13049 -0.19938,-0.31229 -0.042,-0.18647 0.064,-0.33101 0.0967,-0.13289 0.23423,-0.13758 0.13635,-0.0152 0.37646,0.0908 0.60844,0.26674 1.24597,0.36565 0.64219,0.0931 1.21558,-0.003 0.5897,-0.0922 1.03598,-0.4711 z"
           inkscape:connector-curvature="0" />
      </g>
      <path
         transform="matrix(0.42660227,-0.01143775,0.01143775,0.42660227,-87.00509,119.3485)"
         d="m -319.61666,127.40207 -11.18201,-8.42509 -11.34292,8.20718 4.55731,-13.23823 -11.31065,-8.2516 13.99859,0.24342 4.35255,-13.30695 4.0943,13.38867 14.00067,0.0275 -11.46817,8.03122 z"
         id="path4563"
         style="opacity:1;fill:#5dc21e;fill-opacity:1;stroke:none;stroke-width:0.92812204;stroke-miterlimit:4;stroke-dasharray:none"
         inkscape:connector-curvature="0" />
    </g>
  </g>
</svg>
